<svg id="Layer_1" data-name="Layer 1" xmlns="http://www.w3.org/2000/svg" viewBox="0 0 200 200"><defs><style>.cls-1,.cls-6{fill:#fff;}.cls-2{opacity:0.8;}.cls-3,.cls-4{fill:#231f20;}.cls-3,.cls-4,.cls-6{stroke:#231f20;}.cls-3,.cls-4,.cls-5,.cls-6{stroke-miterlimit:10;}.cls-4,.cls-5{stroke-width:0.25px;}.cls-5{fill:none;stroke:#a7a9ac;}</style></defs><title>logo-Artboard 1</title><path class="cls-1" d="M51.29,153c-3-1.72-14,4.63-19,5.47-8.69,1.46-7.24-19-8.61-21-7.44-11-10.94-27.78-5.31-42.86,13.47-36.06,68.34-33,69.81-32.38a4.83,4.83,0,0,0,1.49.41,5.69,5.69,0,0,0,1.77-.14,24.65,24.65,0,0,0,9.53-4.9c6.88-6.2,22.2-8.41,31-8.44a48.74,48.74,0,0,1,13.47,1.77c1.38.41,7.79,2.36,12.38,5.85,8.39,6.38,4.18,12.9,13.61,33.34,0,0,6,13,13.88,22.59l1.91,2.31-.55,1.91c-1.4,4.85-73.2,24.35-73.2,24.35-4.5,1-8.5,3.28-15.11,4.49-14.5,2.68-16.79-1.45-27.48,2.05-5.19,1.69-10.73,4.65-13.61,2.17C55.85,148.74,52.72,153.76,51.29,153Z"/><g class="cls-2"><path class="cls-3" d="M28.38,167.64c3.09-.64,5.05-9.66,4.08-16.32-.61-4.19-2-5-2.45-10.19-.3-3.74.13-6.89.82-11.83,1-7,1.63-7,1.22-9.38-.47-2.78-1.42-3.13-4.08-9.79a41,41,0,0,1-2-5.71,24,24,0,0,1,.41-11.83,25.77,25.77,0,0,1,6.93-11c4.39-4.55,8.88-6.67,15.5-9.79a63.27,63.27,0,0,1,10.6-4.07,65.16,65.16,0,0,1,11.83-2c10.39-.92,11,1,17.13,0,6.6-1.08,6-3.34,17.13-7.75a70,70,0,0,1,18-4.9,44.58,44.58,0,0,1,14.68,0c4.16.78,13.58,2.54,18.76,9.79,2.45,3.44,1.54,4.72,4.9,15.09,0,0,1.89,5.85,5.3,13.87,6.66,15.66,18.23,31.42,20.8,30.18.56-.27.33-1.17-1.23-13.46-1.32-10.44-1.35-11.31-2-13.87-1.49-5.51-2.41-5.36-4.49-12.23-1.38-4.57-1-4.66-2.86-11.83-.82-3.16-1.89-7.22-3.67-12.24-2.2-6.22-3.31-9.34-5.3-11.82-3.33-4.16-11.11-7.89-9.38-7.75,3.26.26,13.44,1.17-5.71-3.27-5-1.16,13.07,1.64,5.3-1.22-.83-.3-6.88-3.57-3.26-2.85,8.91,1.76,13.24,8.91,14.27,8.15s-2-10.06-9.78-17.53c-8.69-8.36-19.17-10.6-25.29-11.83-16.94-3.41-30.84.55-39.15-4.49a22.67,22.67,0,0,0-6.94-2.85,17,17,0,0,0-9,0c-3.37,1-3,2.37-6.93,4.08-1.3.56-1.92.67-9.79,2-5,.87-7.53,1.31-9,1.64a50.14,50.14,0,0,0-8.56,2.44c-4.19,1.7-6.85,2.79-9,5.31-3.77,4.47-1.45,8.31-5.3,12.23-2.21,2.24-3.52,1.55-7.35,3.67a28.27,28.27,0,0,0-11,11.83c-3.2,6.2-.39,7-3.26,18.76C7.22,73,5.38,74.69,4.72,82c-.12,1.33-.15,2.36,0,10.2.12,6.07.32,14.39.41,16.31C5.89,125.33,21.17,169.13,28.38,167.64Z"/><path class="cls-4" d="M121.14,133.16a4.31,4.31,0,0,1-2.17-.55,4.92,4.92,0,0,1-2-3,7.16,7.16,0,0,1,0-4.08c.81-2.65,3-4.05,5.44-5.57a39.27,39.27,0,0,1,5.71-2.72c2.33-1,4.22-1.67,6-2.31.74-.27,2.61-.94,5.17-1.77,3.81-1.24,5.71-1.86,7.74-2.31a48.11,48.11,0,0,1,8.3-1.09c3.48-.14,5.84-.24,9,.55s5.06,2,8.29,4.07c1.68,1.08,2.42,1.73,2.31,2.32-.2,1.1-3.34,1.41-4.21,1.49a20.85,20.85,0,0,1-4.21-.13,27,27,0,0,0-6.8-.3c-3.48.37-2.79.14-8.57,1-4.42.63-6.9,1-9,1.9a31.87,31.87,0,0,0-4.89,2.31c-2.91,1.66-1.58,1.82-5.58,3.94a21.88,21.88,0,0,0-3.94,3C124.67,131.79,123.39,133.17,121.14,133.16Z"/><path class="cls-4" d="M90.14,141a4.3,4.3,0,0,0,1.64-1.53,4.88,4.88,0,0,0,.34-3.6,7.11,7.11,0,0,0-2-3.57c-2-1.93-4.6-2.09-7.45-2.26a39,39,0,0,0-6.32.38c-2.52.26-4.5.57-6.35.86-.78.13-2.74.44-5.38,1-3.93.75-5.9,1.13-7.9,1.72A46.21,46.21,0,0,0,49,137c-3.11,1.55-5.24,2.6-7.59,4.81s-3.46,4.19-5.29,7.57c-1,1.76-1.29,2.68-.91,3.14.71.87,3.61-.38,4.41-.72a20.33,20.33,0,0,0,3.62-2.16A28,28,0,0,1,49,146.08c3.23-1.36,2.51-1.22,8-3.28,4.18-1.58,6.51-2.48,8.77-2.67a33.63,33.63,0,0,1,5.4-.33c3.36,0,2.27.82,6.79.76a21.6,21.6,0,0,1,4.9.71C86.39,141.48,88.18,142.08,90.14,141Z"/><path class="cls-5" d="M95.27,57.11c1.32-1.82,3.29-4.51,5.71-7.75,6.3-8.45,9.45-12.67,11-14.27,7.84-8.08,17.35-10.91,21.82-12.24,13.21-3.93,18.52-2.79,20-2.24a18.67,18.67,0,0,1,4.49,2.45"/><path class="cls-5" d="M101.38,55.07a40.17,40.17,0,0,0,6.53-6.93c3.16-4.29,3.23-6.18,5.71-9.38,2.94-3.8,6.27-5.55,11.21-8.16,4.49-2.36,8.23-3.41,15.71-5.51,9.3-2.6,11.66-2.37,13.25-2a18.17,18.17,0,0,1,9.18,5.3"/><path class="cls-5" d="M105.67,54.46a11.51,11.51,0,0,0,4.69-3.67c1.47-2,1.47-3.64,2.44-6.12a23.47,23.47,0,0,1,4.9-7.14c1.39-1.38,2.5-2,13-6.32,6.79-2.76,8.06-3.2,9.79-3.67a36.69,36.69,0,0,1,9-1.63c7-.09,12.76,3.93,16.11,6.93"/><path class="cls-5" d="M110.36,54.66A17.09,17.09,0,0,0,112.19,53a11.89,11.89,0,0,0,2.24-2.85c.74-1.4.66-2.2,1-3.88A16.84,16.84,0,0,1,118.31,40a13.06,13.06,0,0,1,4.89-3.67c3.69-1.8,4.94-.82,9.38-2.24,3.93-1.26,3.89-2.32,7.75-3.67A29.6,29.6,0,0,1,149.51,29c9,.16,15.74,6.06,17.74,8"/><path class="cls-5" d="M115.45,53.24c1.57-.59,3.43-1.57,3.88-3.27.35-1.3-.42-2-.41-3.67A7.43,7.43,0,0,1,122,40.59c2.55-1.74,4.16.41,8.77-.61,3.44-.76,6.27-2.78,8.36-4.28,2.39-1.71,2.68-2.43,4.49-3.06a12.76,12.76,0,0,1,6.73-.2,18,18,0,0,1,5.71,2"/><path class="cls-5" d="M84.46,61.6a21.4,21.4,0,0,0,6.73-5.3c2.29-2.76,2.09-4,4.69-8.16,2.78-4.41,3.85-4.25,6.73-8.57s2.35-5.33,4.69-9.17a35.06,35.06,0,0,1,10.6-10.81,32.12,32.12,0,0,1,15.91-6.12,31,31,0,0,1,19,4.9"/><path class="cls-5" d="M97.1,50.79c1-1.56,2.53-4,4.69-6.93,3-4,4.16-4.92,6.12-8,2.91-4.51,2.38-5.71,4.28-8.56,3.18-4.77,8.13-6.62,12.24-8.16A39.61,39.61,0,0,1,147.06,18"/><path class="cls-5" d="M121.16,51.61c.51-.66,1.24-1.63,2-2.86,2.13-3.28,1.88-4,2.86-4.89,2.28-2.2,5.13.14,9.79-1.23,3.76-1.11,4-3.24,7.34-4.89,2.59-1.27,6.74-2.11,13.46.2"/><path class="cls-5" d="M126.87,49.77a13.22,13.22,0,0,1,4.69-2.65c3.65-1.13,5.15.29,8.16-.82,3.23-1.18,3.09-3.4,6.12-4.89,1.77-.87,4.61-1.49,9.18,0"/><path class="cls-5" d="M134.42,49.77c5.6.63,8.86-.69,10.81-2,2.32-1.6,2.43-3,4.69-3.67,3.63-1.09,6.48,1.57,8.77,0a4.41,4.41,0,0,0,1.63-2.86"/><path class="cls-5" d="M144,51c4.08.16,9,.07,9.38-1.42.23-1-1.53-1.81-1.22-2.66s3.06-.75,10-.4l4.29.2"/><path class="cls-5" d="M179.08,111l3.06,2q2.06,1.35,4.08,2.65"/><path class="cls-5" d="M175,103.81a10.45,10.45,0,0,0,2.24,2.86,15.75,15.75,0,0,0,3.27,2,42.94,42.94,0,0,1,4.48,2.86"/><path class="cls-5" d="M171.53,96.88c1.23-.09,2.79,0,3.67,1s.44,2,1,3.46,1.63,2.23,3.67,3.67a28.42,28.42,0,0,0,6.73,3.47"/><path class="cls-5" d="M169.9,94a9,9,0,0,1,4.9.41,6.29,6.29,0,0,1,1.83,1c1.54,1.27,1.58,2.69,2.45,4.08a7.58,7.58,0,0,0,4.49,3.06"/><path class="cls-5" d="M150.33,54.05c1.51-.56,3.93-1.47,6.93-2.65,3.2-1.26,4-1.64,5.3-1.63s4.05.42,7.34,4.49"/><path class="cls-5" d="M151.35,55.68c1.83,1,3.53,1.51,4.69.82.92-.56.87-1.51,1.83-2.24,1.44-1.12,3.62-.54,4.9-.21,4.83,1.28,8.39,5.38,9.78,7.14"/><path class="cls-5" d="M156.24,58.74a6.83,6.83,0,0,0,4.08-.2c1.51-.61,1.9-1.52,2.85-1.43,1.31.13,1.71,1.94,3.06,3.67a11.1,11.1,0,0,0,5.71,3.67"/><path class="cls-5" d="M159.91,63a29.55,29.55,0,0,1,4.69.82A29.88,29.88,0,0,1,174,68.12"/><path class="cls-5" d="M162.56,66.7a11.11,11.11,0,0,1,3.67.4,11.94,11.94,0,0,1,3.06,1.43,40,40,0,0,0,6.32,3.06"/><path class="cls-5" d="M162,69.14a6.3,6.3,0,0,1,2.85,1.23c1.38,1.07,1.45,2.14,2.66,2.65s1.83-.08,3.26-.21a8.6,8.6,0,0,1,5.5,1.63"/><path class="cls-5" d="M160.93,72a6.31,6.31,0,0,1,3.87,1.22c1.39,1.09,1.33,2.19,2.66,2.86s2.25,0,4.28,0A10.86,10.86,0,0,1,177,77.5"/><path class="cls-5" d="M163.78,76.69a20.43,20.43,0,0,0,5.1,2,20.65,20.65,0,0,0,4.9.61"/><path class="cls-5" d="M164.8,80c.53.22,1.32.55,2.25,1,2.54,1.27,2.68,1.76,3.87,2,1.86.44,2.44-.53,4.28-.2a6.31,6.31,0,0,1,3.47,2"/><path class="cls-5" d="M165.21,83.21c2.88-.48,4.42.16,5.3.82,1.22.92,1.48,2.13,2.86,2.45,1.07.25,1.53-.34,2.85-.41a6.19,6.19,0,0,1,4.08,1.43"/><path class="cls-5" d="M166.23,86.48c1.72.57,3.12,1.07,4.08,1.42A20.63,20.63,0,0,0,174,89.13c1.89.33,2.37-.07,3.88.2a8.54,8.54,0,0,1,4.07,2"/><path class="cls-5" d="M169.49,90.55a30.93,30.93,0,0,1,4.9.62,16.69,16.69,0,0,1,4.69,1.42A10.87,10.87,0,0,1,184,98.71"/><path class="cls-5" d="M79,62.62c.92-.86,2.33-2.14,4.08-3.67,3.8-3.33,4.35-3.53,5.3-4.69,1.76-2.16,1.49-3.44,3.06-9a61.17,61.17,0,0,1,3.88-10.6,42.09,42.09,0,0,1,5.91-8.77c2.71-3.11,6-6.91,11.42-9.18,2.65-1.11,3.33-.81,7.54-2.44a60.23,60.23,0,0,0,7.75-3.67"/><path class="cls-5" d="M74.47,63a21.75,21.75,0,0,1,4.69-5.09c2.72-2.14,4-2.09,5.5-3.88,1.74-2.13,1.32-4,2-8.15.78-4.49,1.5-3.68,3.47-10.61,2.22-7.8,1.67-10.11,4.28-12.44,1.66-1.48,2.66-1.23,5.71-2.65a29.59,29.59,0,0,0,10-7.75"/><path class="cls-5" d="M70.59,62.41a14.81,14.81,0,0,1,2.24-4.69,17.51,17.51,0,0,1,4.69-4.28c2.29-1.51,2.82-1.25,3.67-2.24,1.44-1.66.83-3.38,1-6.94a37.53,37.53,0,0,1,3.27-12.44c.83-2.05.78-1.5,2.24-4.89,2.7-6.26,2.36-7,3.67-8.16,2.59-2.33,5.12-.61,9-2.65A13.11,13.11,0,0,0,105.87,10"/><path class="cls-5" d="M66.92,63.43a13.41,13.41,0,0,1,1.43-4.69c1.7-3.23,3.86-3.9,5.91-6.52.58-.75,1.32-1.86,3.06-8.36,2.24-8.38,1.67-8.94,3.06-13.06A34.36,34.36,0,0,1,86.5,19.38,32.08,32.08,0,0,1,97.3,11"/><path class="cls-5" d="M63.05,64.66a24.67,24.67,0,0,1,4.48-9c2-2.56,3-2.67,4.08-4.69,2.29-4.32-.65-6.64.61-11.82,1.4-5.78,5.71-5.59,7.14-11.83,1-4.15-.7-5.34.2-8.57.84-3,3.61-6.83,12.65-10"/><path class="cls-5" d="M59.17,63.84c.79-2,1.92-5,3.06-8.77,2.4-7.93,1.7-8.82,3.47-13.87,2.46-7.07,4.19-6.35,7.75-15.29,2-4.95,1.9-6.34,3.87-9.79a33.33,33.33,0,0,1,7.55-9"/><path class="cls-5" d="M56.32,65.47a42.26,42.26,0,0,0,.4-8.16c-.32-7.06-2.21-9.19-1.83-14.07.27-3.48,1.31-3.38,4.48-11.21,4-9.9,3-11.7,5.71-15.91,1.93-3,5.6-7,13.26-10"/><path class="cls-5" d="M59.78,57.31a33.51,33.51,0,0,0,.41-8.56C59.87,44.81,59.05,43.4,59,41c-.17-5,3-8.6,5.91-12.23A158.12,158.12,0,0,0,78.14,9"/><path class="cls-5" d="M53.26,67.1a18,18,0,0,0,1.22-5.5c.14-2.35-.22-4.29-1.43-8.77-1.38-5.13-1.78-5.86-2.24-7.75-1.26-5.19-.51-9.28.82-16.52,1.23-6.76,1.91-10.21,4.69-13a24.33,24.33,0,0,1,5.3-3.87A28.15,28.15,0,0,1,68.14,9"/><path class="cls-5" d="M50.2,68.94a55.34,55.34,0,0,0-.82-8.36c-.81-4.67-1.81-6.86-3.26-12.65-1.24-4.93-1.86-7.39-2-9.78a29.58,29.58,0,0,1,3.67-17.54,27.87,27.87,0,0,1,9.18-9.38"/><path class="cls-5" d="M49.18,70a27.9,27.9,0,0,1-2.65-5.1c-1.81-4.58-1.36-7-2-11.83-1-7-2.71-6.86-4.69-16.72-1.22-6.06-.95-8-.82-8.77.91-5.21,4.38-8.77,6.53-10.6"/><path class="cls-5" d="M46.73,70.16a9.21,9.21,0,0,1-4.08-3.67c-1.32-2.37-.75-4.34-.81-7.34,0-1.17-.14-2.08-3.47-12.44-3.1-9.65-3.06-9-3.26-10.2-.62-3.58-1.59-9.68,1.83-14.68A13.21,13.21,0,0,1,39.59,19"/><path class="cls-5" d="M43.47,72a5.09,5.09,0,0,1-3.88-1.23c-1-1.07-.93-2.45-1-5.71,0,0-.1-3.67-.4-7.13a29.26,29.26,0,0,0-1.43-8c-1.2-3.27-2.35-3.77-4.08-7.34a29.21,29.21,0,0,1-2.45-7.54"/><path class="cls-5" d="M39.39,74.85a4.29,4.29,0,0,1-3.26-1.22c-1-1.13-.71-2.71-.61-3.67.39-4-1.09-3.84-1.64-10.4-.52-6.28.79-7.13-.61-10-.87-1.8-1.3-1.29-3.87-4.9-3.75-5.25-3.42-7.15-3.27-7.75a5.35,5.35,0,0,1,2-2.85"/><path class="cls-5" d="M35.92,76.08C33.81,75.53,31,74.44,29.81,72c-1-2.09-.26-3.76,0-7.34.14-2.11.52-7.46-1.64-12-2.43-5.16-6.29-5.51-6.93-9.78a9.87,9.87,0,0,1,1.63-6.53"/><path class="cls-5" d="M34.7,77.71c-1.56.32-4,.56-5.91-.82-1.59-1.16-1.9-2.84-2.66-5.5-1.12-4-2.92-7.73-4.28-11.63-1.69-4.85-3-6-3.46-9.38a28.39,28.39,0,0,1-.21-4.89A28,28,0,0,1,19,40"/><path class="cls-5" d="M31,81c-1.52.48-3.75.89-5.51-.2-1.52-1-1.86-2.53-2.65-4.69-2.11-5.76-3.66-5.3-5.3-10-1-2.82-.66-3.64-1.43-10.19-.53-4.54-1.17-8.21-1.63-10.61"/><path class="cls-5" d="M29.4,84a9.87,9.87,0,0,1-7.14-.82c-1.05-.63-1.18-1.06-3.67-4.07-3.93-4.76-4.74-5-5.3-6.94-.4-1.33.11-.81,0-5.71-.08-3.34-.34-4.61-.41-8.56,0-1.4,0-2.54,0-3.27"/><path class="cls-5" d="M27.36,87.7a13.86,13.86,0,0,1-7.55-.61c-1.3-.51-2.84-1.7-5.91-4.08C11,80.78,10.43,80,10,79.14a7.78,7.78,0,0,1-.4-4.9"/><path class="cls-5" d="M24.4,91.3H21.85c-5.72,0-6.8,0-8.15-.61A9.7,9.7,0,0,1,10,87.23a18.79,18.79,0,0,1-3.46-8.16"/><path class="cls-5" d="M24.5,94.84a13.21,13.21,0,0,0-2.85-.21c-3,.1-4,1.09-6.53,1a10.41,10.41,0,0,1-3.67-.81,9,9,0,0,1-4.89-3.67A8.08,8.08,0,0,1,6,85.05"/><path class="cls-5" d="M24.1,97.49a6.66,6.66,0,0,0-4.29-.61c-1,.24-1.16.61-2.44,1.22a12.65,12.65,0,0,1-6.94,1A12,12,0,0,1,7,98.1"/><path class="cls-5" d="M23.48,100.34a6.64,6.64,0,0,0-4.48,0c-1.73.72-1.69,1.84-3.06,2.25-2.66.79-4.83-2.81-7.14-2-.73.24-1.6,1-2.24,3.06"/><path class="cls-5" d="M22.87,103.4a30.76,30.76,0,0,1-3.06,1.23,16.53,16.53,0,0,1-3.06.81c-2.21.31-3-.34-4.28-.2s-3,.94-4.89,4.28"/><path class="cls-5" d="M24.5,105.85a10.79,10.79,0,0,0-4.48,0,25.56,25.56,0,0,0-4.9,2c-1.59.76-2.39,1.14-2.85,1.43a14.41,14.41,0,0,0-4.49,4.48"/><path class="cls-5" d="M25.32,107.68a9.77,9.77,0,0,0-3.88,0,11.35,11.35,0,0,0-3.05,1.23c-3.84,2-5.75,2.93-6.33,3.67s-.31.62-2,4.69c-.59,1.4-1.1,2.53-1.42,3.26"/><path class="cls-5" d="M26.54,111a7.6,7.6,0,0,0-5.5-.82c-2.39.66-3.73,2.6-4.9,4.28-1.39,2-1.29,2.85-2.65,5.1A20.54,20.54,0,0,1,9.82,124"/><path class="cls-5" d="M31.44,153.57c-.93-.33-2.1-.58-2.86,0-.92.69-.71,2.18-.81,3.87a16,16,0,0,1-1.84,6.32"/><path class="cls-5" d="M31,150.51a3.92,3.92,0,0,0-2.45,0,4.1,4.1,0,0,0-2.24,2c-.83,1.54-.23,2.48-.61,4.28a7.87,7.87,0,0,1-2.25,3.88"/><path class="cls-5" d="M29.6,147.65a4.06,4.06,0,0,0-5.5,2c-.76,1.62.07,2.57-.41,4.49a6.6,6.6,0,0,1-1.84,3.06"/><path class="cls-5" d="M30.38,143.83a8.3,8.3,0,0,0-4.86.36,9,9,0,0,0-5.3,8.56"/><path class="cls-5" d="M28.17,141.13a12.67,12.67,0,0,0-2.24,0,7.72,7.72,0,0,0-3.47.81c-1.19.73-1.15,1.52-2.85,3.67a20.27,20.27,0,0,1-1.84,2"/><path class="cls-5" d="M28.58,137.66a20.89,20.89,0,0,0-3.46-.41c-2.49-.08-3.73-.12-4.7.62-1.48,1.13-.92,2.88-2.44,3.87a4,4,0,0,1-2.86.41"/><path class="cls-5" d="M31.61,124.56A23.17,23.17,0,0,0,28,129.71c-1.09,2.11-1.24,3.26-2.45,3.87-1.55.8-2.71-.38-4.69,0-1.24.24-2.86,1.1-4.48,3.88"/><path class="cls-5" d="M30.62,120.33A12.33,12.33,0,0,0,28.79,122a15.44,15.44,0,0,0-2.25,3.26C24.49,128.89,25,129,24.3,129.5c-2.07,1.45-4.71-1.19-7.55,0a6.15,6.15,0,0,0-3.05,3.68"/><path class="cls-5" d="M29.4,117.68a8,8,0,0,0-4.08,2c-1.42,1.37-1.13,2.28-2.45,3.46-1.63,1.46-3,.93-5.71,2a13.81,13.81,0,0,0-4.48,3.06"/><path class="cls-5" d="M27.36,115a5.81,5.81,0,0,0-4.28-1.43,5.65,5.65,0,0,0-3.27,1.63c-1.94,1.89-1.28,3.78-3.06,5.91a7.65,7.65,0,0,1-3.26,2.25"/><path class="cls-5" d="M25.73,116.86a5.26,5.26,0,0,0-5.31,3.67"/><path class="cls-3" d="M25,171.85l-3-9.51c1-.4,2.44-1,4.21-1.77,3.69-1.6,4.88-2.27,7.48-3.4,2.93-1.27,5.15-2,7.48-2.85,1.14-.4,4.55-1.57,9.24-2.86,1-.29,1.82-.49,9.52-2.31,7.87-1.87,9.06-2.13,10.6-2.45,3.11-.64,5.21-1.07,8.16-1.49,1-.15,4.94-.69,10.2-1,5.08-.26,5.82,0,9.65-.41,2.94-.34,5.18-.81,6.52-1.09a74.71,74.71,0,0,0,9.25-2.58c1.35-.49,2.92-1.1,10.74-4.9,6.48-3.14,5.53-2.78,7.75-3.8a135.76,135.76,0,0,1,15.5-6c1.8-.57,4.24-1.24,9.11-2.58,7.69-2.11,10.91-2.84,12.23-3.13,2.78-.6,5-1.08,7.75-1.49a80,80,0,0,1,13.73-.82c1.22,2.65,2.8,5.31,2.31,7.89L191,132.7c-.12,1.12-.21,2.3-.27,3.53a56.93,56.93,0,0,0,.14,6.8,36.55,36.55,0,0,1-2.31,14.28,18.59,18.59,0,0,1-4.22,7.07,24.43,24.43,0,0,1-2.85,2.31,21.84,21.84,0,0,1-3.13,1.76,96.16,96.16,0,0,1-10.33,4c-3.26,1-6.4,2-10.74,3a48.15,48.15,0,0,1-8.84,1.36,18.39,18.39,0,0,1-5.84-.41,16.13,16.13,0,0,1-4.9-2.18c-2.06-1.37-3.18-2.84-5-5.3-1.08-1.44-1.31-1.9-4.08-6.25-4.2-6.62-4-6.07-4.48-7.07a38.64,38.64,0,0,0-3.54-6.39,8.66,8.66,0,0,0-1.9-2,8.94,8.94,0,0,0-4.22-1.63,11.37,11.37,0,0,0-8,1.49,9.2,9.2,0,0,0-3.53,3.95c-.28.62-.62,1.62-.68,4.76,0,2.22.13,2.92.41,6.93.17,2.5.27,4,.27,6a40.17,40.17,0,0,1-.27,5.57,33.49,33.49,0,0,1-1.5,6.39c-1.19,3.72-1.79,5.58-3.26,7.21s-3.15,2.44-5.44,3.53a46.85,46.85,0,0,1-5.71,2c-2.59.85-4.94,1.59-7.75,2.45-2.65.81-4,1.22-5.84,1.77a66.4,66.4,0,0,1-8.43,2.17,41.59,41.59,0,0,1-6.39.28,26.4,26.4,0,0,1-6.12-.41,17.3,17.3,0,0,1-6.39-3.27c-1.1-.88-.89-1.07-3.81-4.21-1.79-1.93-1.79-1.81-2.58-2.72a30.78,30.78,0,0,1-3.81-5.71c-1.54-2.82-1.4-3.28-3.12-6.25-1.51-2.61-2.23-3.32-2.86-3.81A9,9,0,0,0,25,171.85Z"/><path class="cls-6" d="M35.45,175.39a21.85,21.85,0,0,1-1.36-2.72,14.59,14.59,0,0,1-1.23-4.35,8.45,8.45,0,0,1,4.49-9c1.32-.87,2.77-1.6,7.34-3,1.33-.41,2.7-.81,8.43-2.32l6.25-1.63c5-1.28,7.48-1.92,9.39-2.31,2.77-.57,4.81-.88,8-1.36,3.06-.46,4.63-.69,6.66-.81,2.79-.17,2.54.06,5.57-.14,2.34-.15,3.12-.34,4.49,0a6.69,6.69,0,0,1,3.53,1.9c.61.69.91,1.42,1.5,5.71.39,2.89.59,4.33.68,6.26.12,2.55-.07,2.39,0,5.84.08,4,.33,4.46.13,6.8a22,22,0,0,1-.81,4.62,16.06,16.06,0,0,1-2.18,4.9c-1.45,2.09-3.15,3.1-6,4.76a40.07,40.07,0,0,1-6.8,3.12,63.83,63.83,0,0,1-8.7,2.45,53,53,0,0,1-8.43,1.49,50.43,50.43,0,0,1-5.57.14,40.91,40.91,0,0,1-5.57-.41,17,17,0,0,1-5-1.22A14.46,14.46,0,0,1,45.92,191a28.82,28.82,0,0,1-3.27-4.21c-.83-1.19-2.14-3.1-3.8-5.71C38.27,180.19,37,178.1,35.45,175.39Z"/><path class="cls-6" d="M129,155.81c-.28-.45-1-1.62-2.58-3.94-2.48-3.76-2.91-4.32-3.26-5.58a7.73,7.73,0,0,1,0-5.16c.22-.56.85-1.85,3.8-3.81a34,34,0,0,1,7.21-3.4c4.08-1.58,7.25-2.68,8.15-3,4-1.38,3.83-1.2,6.94-2.31,3.61-1.29,4.18-1.64,6.8-2.45,2.24-.69,2.13-.53,5.57-1.49,4.47-1.25,4.76-1.56,7.48-2.18a35.39,35.39,0,0,1,6-1c3.63-.22,5.74-.34,7.75,1a9.73,9.73,0,0,1,3.53,5c.63,1.57.79,3.2,1.09,6.39a54.19,54.19,0,0,1,.27,9c-.08,1.45-.24,2.73-.54,5.3a43.31,43.31,0,0,1-.68,4.62,17.68,17.68,0,0,1-2.31,5.71,17.4,17.4,0,0,1-4.22,4.35,28.47,28.47,0,0,1-5.57,3.4,51.37,51.37,0,0,1-6.66,2.72,77.61,77.61,0,0,1-10.2,2.72c-2.26.46-3.77.67-6.8,1.09a18.13,18.13,0,0,1-4.75.27,12.73,12.73,0,0,1-4.63-1.36c-.44-.24-1.56-.87-4.21-3.67a36.18,36.18,0,0,1-4.35-5.17C131,160.15,131.32,159.63,129,155.81Z"/><path class="cls-3" d="M171.53,125.77c.09-.45,1.06-.59,2.59-.82a10.62,10.62,0,0,1,4.89,0,6.34,6.34,0,0,1,3.67,2.31,6.08,6.08,0,0,1,.95,3.54c.09,3.26-1.65,5.07-.68,6.25.41.49.77.25,1.36.82,1.22,1.16,1.5,3.87.14,4.89-1.09.82-3,.41-3.26-.27s1.48-1.28,1.49-2.59c0-1-1-1.27-1.77-2.44-1.6-2.54.9-5.11-.54-7.07-.59-.81-1.06-.45-4.21-1.77C174.63,128,171.37,126.62,171.53,125.77Z"/><path class="cls-3" d="M172.08,133.11a2.13,2.13,0,0,1,.95-1.5,2.35,2.35,0,0,1,3,.95c.32.72-.25,1.22.14,1.91s1.42.63,1.49,1.08-1,1.31-2,1.36A3.73,3.73,0,0,1,172.08,133.11Z"/><path class="cls-3" d="M52.13,189.35c-.33.61,1.53,2.36,3.27,3.26s4.73,1.73,6.11.41a11.86,11.86,0,0,0,1.71-2.93c.36-.75.46-1.1.74-1.15.85-.17,2.59,2.38,2,3.26C64.81,194.14,52.91,187.92,52.13,189.35Z"/><path class="cls-3" d="M78.54,153c.15-.49,1.88.2,5.31-.41,2.94-.53,3.56-1.38,5.71-1.23A6.1,6.1,0,0,1,93.63,153c1.73,1.79,2.09,5.08.82,6.11-.74.61-3.73-2.21-7.58-3.73C80.7,152.89,78.32,153.72,78.54,153Z"/><path class="cls-5" d="M120.55,131.34a2.63,2.63,0,0,1-2-1.22c-.35-.75,0-1.49.41-3.06a17,17,0,0,0,.41-3.06"/><path class="cls-5" d="M123,130.73a5.27,5.27,0,0,1-1.43-1.43,5.14,5.14,0,0,1-.81-2.24,6.46,6.46,0,0,1,1-4.28"/><path class="cls-5" d="M125.65,129.1a5.82,5.82,0,0,1-1.63-.61,2.77,2.77,0,0,1-1.28-1.13,2.22,2.22,0,0,1-.2-1,3.7,3.7,0,0,1,.61-1.63c.51-1.1.16-1.41.56-2.49a5.24,5.24,0,0,1,1.28-1.89"/><path class="cls-5" d="M127.94,128.79a4.32,4.32,0,0,0-1.07-.81c-1.15-.63-1.86-.35-2.09-.77-.33-.61-.14-1.87.51-3.92.36-1.12,1.32-.92,1.58-1.89a6.55,6.55,0,0,1,2.91-3.62"/><path class="cls-5" d="M129,127.77a2.77,2.77,0,0,1-1.23-.71,2.16,2.16,0,0,1-.71-1.28c-.06-.86.87-1.07,1.78-2.55.56-.89.4-1.09,1-2.29a11.42,11.42,0,0,1,1.53-2.24"/><path class="cls-5" d="M131,126.29c-.51-.13-1.19-.37-1.27-.81-.13-.66,1.14-1.24,2.09-2.19a8,8,0,0,0,1.88-4.85,2.41,2.41,0,0,1,.31-1.63,2.16,2.16,0,0,1,1.63-.66"/><path class="cls-5" d="M133.5,124.25a4.18,4.18,0,0,0,2.81-1.93c.39-.83,0-1.21.25-2.55A7.81,7.81,0,0,1,141.3,114"/><path class="cls-5" d="M137.73,121.55a2.33,2.33,0,0,0,.92-1.37c.11-.59-.17-.79-.15-1.28,0-.94,1.1-1.48,2.95-2.85.56-.41,1.36-1,2.3-1.84"/><path class="cls-5" d="M139.82,120.68a11.09,11.09,0,0,0,2-1.47c1-.93.91-1.19,1.89-2.14,1.33-1.31,2-1.36,2.45-2.35a3.26,3.26,0,0,0,.2-1.73"/><path class="cls-5" d="M144.26,119.05a7.64,7.64,0,0,1,3.36-1.83,6.66,6.66,0,0,1,2.09-.21c1.43.1,1.87.61,2.91.51a3.54,3.54,0,0,0,2-1"/><path class="cls-5" d="M147.32,115.79a3.68,3.68,0,0,0,2-1.43c.63-1,.27-1.8.76-2.49s1.46-1.1,4.18-.67"/><path class="cls-5" d="M152.31,116.2a4.64,4.64,0,0,1,3.22-1.43,9.21,9.21,0,0,1,2.65.82,15.73,15.73,0,0,0,3.51.76"/><path class="cls-5" d="M150.43,115a8.18,8.18,0,0,1,2.24-1.43c1.38-.59,2.14-.46,3.42-1a7.64,7.64,0,0,0,2.65-1.84"/><path class="cls-5" d="M156.14,113.7c3.18-.81,4.73-.26,5.55.46.65.56.68,1.07,1.64,1.73a7.2,7.2,0,0,0,3.41,1.07,14.47,14.47,0,0,0,3,.11"/><path class="cls-5" d="M159.5,112.27a8.46,8.46,0,0,0,4.54.16,10.36,10.36,0,0,1,2.19-.62A5.3,5.3,0,0,1,170,113.6"/><path class="cls-5" d="M163.73,114.21c.49-.09,1.2-.23,2-.46,1.19-.32,1.6-.53,2-.3s.43.89.92,1.42,1.15.83,3,.56"/><path class="cls-5" d="M88.69,140.62a3.44,3.44,0,0,0,1.43-1,3.75,3.75,0,0,0,.81-2.35,5.1,5.1,0,0,0-.76-3"/><path class="cls-5" d="M87.31,140a3.76,3.76,0,0,0,1.38-1c.25-.28,1.08-1.21.87-2.09s-1.06-.79-1.64-1.63a3.51,3.51,0,0,1-.2-3"/><path class="cls-5" d="M86.29,140.77c-.48-.11-1.05-.29-1.07-.56s1-.41,1.58-1.12c.85-1.12-.13-3.19-.51-4a9,9,0,0,0-3-3.46"/><path class="cls-5" d="M83.54,140.57A4.94,4.94,0,0,0,84.3,139a5.34,5.34,0,0,0-.35-3.67,5.82,5.82,0,0,0-4-3"/><path class="cls-5" d="M82,140.16a3.92,3.92,0,0,0,.31-2.4,4.12,4.12,0,0,0-1.64-2.44c-1.17-.87-2-.54-2.7-1.38a2.74,2.74,0,0,1-.51-1.84"/><path class="cls-5" d="M80.38,139.8a1.58,1.58,0,0,0,.66-1.12c0-.22-.06-.81-1.68-1.83s-2.38-.91-3.31-1.64a4.93,4.93,0,0,1-1.69-2.9"/><path class="cls-5" d="M77.32,139.29c.44-.28,1-.68.87-1s-1.09-.27-2.25-.45c-1.62-.27-4.12-1.17-4.33-2.55,0-.27,0-.93.92-1.89"/><path class="cls-5" d="M74,139.24a6.67,6.67,0,0,0-3.67-.71c-.21,0-.36.06-1.23.2l-2.55.41"/><path class="cls-5" d="M70,137.51a2.47,2.47,0,0,1-1.43-1.12,1.7,1.7,0,0,1-.25-1.28c.23-.79,1.21-.82,1.37-1.53a1.38,1.38,0,0,0-.35-1.12"/><path class="cls-5" d="M67.58,137.87c-1.2-.27-1.51-.64-1.58-.92-.12-.54.62-.87.67-1.74a1.81,1.81,0,0,0-.72-1.52c-.76-.51-2.21-.15-3.21,1.17"/><path class="cls-5" d="M65.44,138.27a4,4,0,0,0-.51-.86,3.83,3.83,0,0,0-1.37-1.12c-1-.47-1.44-.1-2.76-.36a6.4,6.4,0,0,1-1.88-.72"/><path class="cls-5" d="M64,139.4a7.16,7.16,0,0,0-1.58-1.33A7.38,7.38,0,0,0,58.86,137c-1.22-.06-1.42.26-2.65.15a7.15,7.15,0,0,1-2.29-.61"/><path class="cls-5" d="M61.87,140.31a4.72,4.72,0,0,0-2.29-.05c-1.54.38-2,1.43-3.42,2a5.69,5.69,0,0,1-3.67.21"/><path class="cls-5" d="M59.83,138.78a10.07,10.07,0,0,0-2.19-.35,17.37,17.37,0,0,0-3.11.3,36.7,36.7,0,0,1-3.82.31c-.89,0-1.62,0-2.09,0"/><path class="cls-5" d="M56.57,141a7.19,7.19,0,0,1-2.14.3c-1.49,0-1.79-.5-2.6-.3-1,.25-1.24,1.21-2.6,2.8A14,14,0,0,1,47,145.92"/><path class="cls-5" d="M53.46,140a4.49,4.49,0,0,0-2.4-.06c-1.61.45-1.93,1.66-3.16,1.69s-1.59-1.2-2.7-1.18c-.65,0-1.61.46-2.75,2.66"/><path class="cls-5" d="M48.62,143.47A4,4,0,0,0,45.71,145c-.61.87-.42,1.68-1.17,2.6a3.92,3.92,0,0,1-1.94,1.23"/><path class="cls-5" d="M46.73,142.3a1.84,1.84,0,0,0-1.43-.3c-.76.22-.76,1.08-1.47,2-.85,1.07-1.65.89-3.88,2.09a18.62,18.62,0,0,0-2.5,1.64"/><path class="cls-5" d="M44.18,145.41a5.8,5.8,0,0,1-1.48,1.43,6.41,6.41,0,0,1-2,.87c-1,.28-2.31,1.11-3.72,3.56"/></g></svg>