<svg id="Layer_1" data-name="Layer 1" xmlns="http://www.w3.org/2000/svg" xmlns:xlink="http://www.w3.org/1999/xlink" viewBox="0 0 300 300"><defs><style>.cls-1,.cls-5{fill:url(#linear-gradient);}.cls-1{clip-rule:evenodd;}.cls-2,.cls-4{fill:#679e63;}.cls-3{fill:#333;}.cls-3,.cls-4,.cls-5{fill-rule:evenodd;}.cls-6{clip-path:url(#clip-path);}.cls-7{fill:none;}.cls-8{fill:url(#linear-gradient-3);}.cls-9{fill:url(#linear-gradient-4);}.cls-10{fill:url(#linear-gradient-5);}.cls-11{fill:url(#linear-gradient-6);}.cls-12{fill:url(#linear-gradient-7);}.cls-13{fill:url(#linear-gradient-8);}</style><linearGradient id="linear-gradient" x1="123.26" y1="120.23" x2="98.16" y2="171.43" gradientUnits="userSpaceOnUse"><stop offset="0" stop-color="#3f873f"/><stop offset="0.33" stop-color="#3f8b3d"/><stop offset="0.64" stop-color="#3e9637"/><stop offset="0.93" stop-color="#3da92e"/><stop offset="1" stop-color="#3dae2b"/></linearGradient><clipPath id="clip-path"><path class="cls-1" d="M113.64,108.29a3.34,3.34,0,0,0-3.35,0l-27.79,16a3.37,3.37,0,0,0-1.67,2.91v32.09a3.36,3.36,0,0,0,1.67,2.9l27.79,16.05a3.34,3.34,0,0,0,3.35,0l27.78-16.05a3.34,3.34,0,0,0,1.68-2.9V127.23a3.36,3.36,0,0,0-1.68-2.91Z"/></clipPath><linearGradient id="linear-gradient-3" x1="107.73" y1="147.02" x2="178.16" y2="94.99" gradientUnits="userSpaceOnUse"><stop offset="0.14" stop-color="#3f873f"/><stop offset="0.4" stop-color="#529f44"/><stop offset="0.71" stop-color="#63b649"/><stop offset="0.91" stop-color="#6abf4b"/></linearGradient><linearGradient id="linear-gradient-4" x1="79.84" y1="102.5" x2="144.08" y2="102.5" gradientUnits="userSpaceOnUse"><stop offset="0.09" stop-color="#6abf4b"/><stop offset="0.29" stop-color="#63b649"/><stop offset="0.6" stop-color="#529f44"/><stop offset="0.86" stop-color="#3f873f"/></linearGradient><linearGradient id="linear-gradient-5" x1="79.84" y1="143.26" x2="144.08" y2="143.26" xlink:href="#linear-gradient-4"/><linearGradient id="linear-gradient-6" x1="79.84" y1="161.6" x2="144.08" y2="161.6" xlink:href="#linear-gradient-4"/><linearGradient id="linear-gradient-7" x1="79.84" y1="169.89" x2="144.08" y2="169.89" xlink:href="#linear-gradient-4"/><linearGradient id="linear-gradient-8" x1="153.44" y1="118.71" x2="113.82" y2="199.53" xlink:href="#linear-gradient"/></defs><title>node</title><path class="cls-2" d="M148.48,245.66a5.49,5.49,0,0,1-2.76-.74l-8.8-5.2c-1.31-.73-.67-1-.24-1.15a17,17,0,0,0,4-1.8.66.66,0,0,1,.65,0l6.76,4a.91.91,0,0,0,.82,0l26.34-15.21a.84.84,0,0,0,.4-.71v-30.4a.86.86,0,0,0-.41-.73l-26.33-15.19a.83.83,0,0,0-.81,0l-26.33,15.2a.84.84,0,0,0-.41.72v30.4a.8.8,0,0,0,.41.7l7.22,4.17c3.91,2,6.31-.34,6.31-2.66v-30a.76.76,0,0,1,.77-.76h3.34a.77.77,0,0,1,.76.76v30c0,5.22-2.85,8.22-7.8,8.22-1.52,0-2.72,0-6.07-1.65l-6.91-4a5.59,5.59,0,0,1-2.76-4.81v-30.4a5.55,5.55,0,0,1,2.76-4.8l26.35-15.22a5.72,5.72,0,0,1,5.53,0l26.34,15.22a5.54,5.54,0,0,1,2.77,4.8v30.4a5.59,5.59,0,0,1-2.77,4.81l-26.34,15.2A5.5,5.5,0,0,1,148.48,245.66Z"/><path class="cls-2" d="M156.62,224.72c-11.53,0-14-5.29-14-9.73a.76.76,0,0,1,.77-.76h3.4a.76.76,0,0,1,.76.65c.51,3.46,2.05,5.21,9,5.21,5.55,0,7.91-1.25,7.91-4.2,0-1.69-.67-2.95-9.3-3.8-7.2-.71-11.66-2.3-11.66-8.07,0-5.31,4.48-8.48,12-8.48,8.44,0,12.61,2.92,13.14,9.21a.77.77,0,0,1-.76.83h-3.41a.75.75,0,0,1-.74-.6c-.82-3.65-2.82-4.81-8.23-4.81-6.06,0-6.76,2.11-6.76,3.69,0,1.92.83,2.47,9,3.56s11.94,2.58,11.94,8.27S165,224.72,156.62,224.72Z"/><path class="cls-2" d="M194.6,192.84a5.08,5.08,0,1,1-5.08-5.08A5.09,5.09,0,0,1,194.6,192.84Zm-9.33,0a4.26,4.26,0,1,0,4.24-4.24A4.25,4.25,0,0,0,185.27,192.82Zm2.35-2.83h2c.67,0,2,0,2,1.5a1.31,1.31,0,0,1-1.08,1.4c.78.05.83.57.94,1.29a5.67,5.67,0,0,0,.3,1.5h-1.21c0-.26-.22-1.72-.22-1.79-.08-.33-.19-.49-.59-.49h-1v2.28h-1.1Zm1.07,2.5h.89a.77.77,0,0,0,.86-.81c0-.78-.54-.78-.84-.78h-.91Z"/><path class="cls-3" d="M66.91,126.72a3.37,3.37,0,0,0-1.69-2.93L37.29,107.72a3.23,3.23,0,0,0-1.54-.44h-.29a3.29,3.29,0,0,0-1.54.44L6,123.79a3.38,3.38,0,0,0-1.68,2.93L4.37,170a1.64,1.64,0,0,0,.84,1.46,1.62,1.62,0,0,0,1.67,0l16.6-9.5A3.42,3.42,0,0,0,25.17,159V138.81a3.35,3.35,0,0,1,1.69-2.92l7.06-4.07a3.32,3.32,0,0,1,1.69-.45,3.23,3.23,0,0,1,1.68.45l7.07,4.07A3.36,3.36,0,0,1,46,138.81V159A3.43,3.43,0,0,0,47.73,162l16.6,9.5a1.63,1.63,0,0,0,1.68,0,1.66,1.66,0,0,0,.84-1.46Z"/><path class="cls-3" d="M201.29,67.23a1.69,1.69,0,0,0-2.51,1.47v42.86a1.21,1.21,0,0,1-.59,1,1.18,1.18,0,0,1-1.18,0l-7-4a3.36,3.36,0,0,0-3.37,0L158.7,124.68A3.38,3.38,0,0,0,157,127.6v32.26a3.38,3.38,0,0,0,1.68,2.92l27.94,16.14a3.4,3.4,0,0,0,3.38,0L218,162.78a3.38,3.38,0,0,0,1.68-2.92V79.45a3.36,3.36,0,0,0-1.73-2.94Zm-2.59,82a.85.85,0,0,1-.43.73l-9.59,5.53a.84.84,0,0,1-.84,0L178.25,150a.83.83,0,0,1-.43-.73V138.18a.83.83,0,0,1,.43-.73l9.59-5.54a.84.84,0,0,1,.84,0l9.59,5.54a.85.85,0,0,1,.43.73Z"/><path class="cls-3" d="M294.32,137.89A3.36,3.36,0,0,0,296,135v-7.82a3.39,3.39,0,0,0-1.68-2.92l-27.76-16.12a3.4,3.4,0,0,0-3.38,0l-27.93,16.12a3.4,3.4,0,0,0-1.69,2.93v32.24a3.37,3.37,0,0,0,1.71,2.93L263,178.16a3.39,3.39,0,0,0,3.31,0l16.79-9.33a1.72,1.72,0,0,0,.87-1.47,1.68,1.68,0,0,0-.85-1.47L255,149.78a1.69,1.69,0,0,1-.84-1.47v-10.1a1.68,1.68,0,0,1,.84-1.46l8.75-5.05a1.68,1.68,0,0,1,1.68,0l8.75,5.05a1.66,1.66,0,0,1,.85,1.46v7.95a1.69,1.69,0,0,0,2.53,1.46Z"/><path class="cls-4" d="M264.46,136.38a.68.68,0,0,1,.65,0l5.36,3.1a.63.63,0,0,1,.32.56v6.19a.65.65,0,0,1-.32.56l-5.36,3.09a.63.63,0,0,1-.65,0l-5.36-3.09a.65.65,0,0,1-.32-.56V140a.63.63,0,0,1,.32-.56Z"/><path class="cls-5" d="M113.64,108.29a3.34,3.34,0,0,0-3.35,0l-27.79,16a3.37,3.37,0,0,0-1.67,2.91v32.09a3.36,3.36,0,0,0,1.67,2.9l27.79,16.05a3.34,3.34,0,0,0,3.35,0l27.78-16.05a3.34,3.34,0,0,0,1.68-2.9V127.23a3.36,3.36,0,0,0-1.68-2.91Z"/><g class="cls-6"><path class="cls-7" d="M110.23,108.29l-27.84,16a3.48,3.48,0,0,0-1.8,2.91v32.09a3.22,3.22,0,0,0,.87,2.13l31.28-53.51A3.39,3.39,0,0,0,110.23,108.29Z"/><path class="cls-7" d="M112.9,178.59a3.29,3.29,0,0,0,.78-.32l27.81-16.05a3.4,3.4,0,0,0,1.74-2.9V127.23a3.29,3.29,0,0,0-1-2.33Z"/><path class="cls-8" d="M141.47,124.32l-27.86-16a3.45,3.45,0,0,0-.87-.35L81.46,161.45a3.49,3.49,0,0,0,.94.77l27.9,16.05a3.42,3.42,0,0,0,2.6.32l29.32-53.69A3.27,3.27,0,0,0,141.47,124.32Z"/><path class="cls-7" d="M143.23,159.32V127.23a3.44,3.44,0,0,0-1.76-2.91l-27.86-16a3.15,3.15,0,0,0-1-.38l30.54,52.18A2.86,2.86,0,0,0,143.23,159.32Z"/><path class="cls-7" d="M82.39,124.32a3.48,3.48,0,0,0-1.8,2.91v32.09a3.47,3.47,0,0,0,1.81,2.9l27.9,16.05a3.39,3.39,0,0,0,2.15.42L82.56,124.22Z"/><polygon class="cls-9" points="109.36 102.39 108.98 102.61 109.49 102.61 109.36 102.39"/><path class="cls-10" d="M141.49,162.22a3.5,3.5,0,0,0,1.64-2.13l-30.54-52.18a3.36,3.36,0,0,0-2.36.38L82.56,124.22l29.89,54.47a3.46,3.46,0,0,0,1.23-.42Z"/><polygon class="cls-11" points="144.08 161.71 143.89 161.39 143.89 161.81 144.08 161.71"/><path class="cls-12" d="M141.49,162.22l-27.81,16.05a3.46,3.46,0,0,1-1.23.42l.55,1,30.89-17.88v-.42l-.76-1.3A3.5,3.5,0,0,1,141.49,162.22Z"/><path class="cls-13" d="M141.49,162.22l-27.81,16.05a3.46,3.46,0,0,1-1.23.42l.55,1,30.89-17.88v-.42l-.76-1.3A3.5,3.5,0,0,1,141.49,162.22Z"/></g></svg>