<svg id="sax-design" xmlns="http://www.w3.org/2000/svg" viewBox="0 0 1024 768"><defs><style>.cls-1,.cls-2,.cls-3,.cls-4{stroke:#000;}.cls-1,.cls-11,.cls-2,.cls-3,.cls-4,.cls-6,.cls-7,.cls-8{stroke-miterlimit:10;}.cls-2{fill:#fff;}.cls-3{fill:#f7931e;}.cls-4,.cls-9{fill:#fbb03b;}.cls-5{fill:#fcee21;}.cls-6{stroke:#fff;}.cls-6,.cls-7{stroke-width:0.2px;}.cls-7{stroke:#fbb03b;}.cls-11,.cls-8{stroke:aqua;}.cls-10,.cls-11{fill:aqua;}.cls-11{stroke-width:0.3px;}</style></defs><title>ai-interface-sax-design</title><g id="saxophone"><path id="sax-base" class="cls-1" d="M369,435.5s27-18,28-44c-5.26-3.5-8.44-6.08-8-7,1.59-3.29,50.19,14.33,49,20q-.5,2.36-14,2c3.34,30.68-16.75,56.55-41,60-17.39,2.48-35.7-6.75-47-23q-7-97-14-194a50.47,50.47,0,0,1-8,11,51.3,51.3,0,0,1-15.95,11.19A60.55,60.55,0,0,1,281,276.5s0-4,5-6a14.82,14.82,0,0,1,10,0s14-5,25-23c2.51-4.11,4-5.51,4.89-5.22,1.69.58-1.84,9.65-1.89,21.22a63.21,63.21,0,0,0,3,19c3.09,11.24,6.8,48.38,11,140C338,422.5,341,454.5,369,435.5Z"/><path id="accent-17" class="cls-2" d="M380.38,425.68s18-30.34,9.81-39.26"/><path id="accent-16" class="cls-3" d="M378.43,463.48c39.08-4.12,42.79-48.07,42.79-48.07l-1.52-3.27c-1.53-3.27-20.22-9.08-20.22-9.08S417,410.5,410,418.5s6,5-17,27S378.43,463.48,378.43,463.48Z"/><ellipse id="small-button-6" class="cls-3" cx="337.25" cy="413.5" rx="11.12" ry="3.5" transform="translate(-185.25 521.75) rotate(-62.5)"/><ellipse id="small-button-5" class="cls-3" cx="335.25" cy="393.5" rx="11.12" ry="3.5" transform="translate(-168.58 509.21) rotate(-62.5)"/><ellipse id="small-button-4" class="cls-3" cx="332.25" cy="373.5" rx="11.12" ry="3.5" transform="translate(-152.46 495.78) rotate(-62.5)"/><ellipse id="small-button-3" class="cls-3" cx="329.25" cy="322.5" rx="11.12" ry="3.5" transform="translate(-108.83 465.67) rotate(-62.5)"/><ellipse id="small-button-2" class="cls-3" cx="328.25" cy="305.5" rx="11.12" ry="3.5" transform="translate(-94.29 455.63) rotate(-62.5)"/><ellipse id="small-button-1" class="cls-3" cx="326.25" cy="285.5" rx="11.12" ry="3.5" transform="translate(-77.63 443.09) rotate(-62.5)"/><path id="accent-15" class="cls-4" d="M397,391.5l-8-7s25,28,49,19"/><path id="accent-14" class="cls-5" d="M334,417.5a16.59,16.59,0,0,1,3-8,12.51,12.51,0,0,1,4-4,39.07,39.07,0,0,0-5,7A35,35,0,0,0,334,417.5Z"/><path id="accent-13" class="cls-5" d="M331.72,397.85a16.56,16.56,0,0,1,3-8,12.38,12.38,0,0,1,4-4,38.61,38.61,0,0,0-5,7A35,35,0,0,0,331.72,397.85Z"/><path id="accent-12" class="cls-5" d="M328.72,377.55a16.56,16.56,0,0,1,3-8,12.38,12.38,0,0,1,4-4,39.07,39.07,0,0,0-5,7A35,35,0,0,0,328.72,377.55Z"/><path id="accent-11" class="cls-5" d="M325.72,327.72a16.56,16.56,0,0,1,3-8,12.51,12.51,0,0,1,4-4,39.07,39.07,0,0,0-5,7A35,35,0,0,0,325.72,327.72Z"/><path id="accent-10" class="cls-5" d="M324.72,310.72a16.56,16.56,0,0,1,3-8,12.51,12.51,0,0,1,4-4,39.07,39.07,0,0,0-5,7A35,35,0,0,0,324.72,310.72Z"/><path id="accent-9" class="cls-5" d="M322.72,289.72a16.56,16.56,0,0,1,3-8,12.51,12.51,0,0,1,4-4,39.07,39.07,0,0,0-5,7A35,35,0,0,0,322.72,289.72Z"/><path id="accent-8" class="cls-3" d="M392,388.5l.16.37a14.48,14.48,0,0,1-.16,9.63c-2,6-9,23-9,23a30.14,30.14,0,0,0,11.44-17.44L397,392.5l-5-4"/><path id="accent-7" class="cls-6" d="M425,407.5s-14-2-24-10"/><path id="accent-6" class="cls-7" d="M296.5,273c7.82-3.62,18.37-10.21,25-22,.75-1.34,1.42-2.68,2-4"/><path id="accent-5" class="cls-8" d="M405,405.5a27.2,27.2,0,0,1,5.44,4.71,6.58,6.58,0,0,1,2.05,4,.66.66,0,0,1,0,.13c.05,2.35-1.79,3.39-3.09,6.21s-.31,4.12-1,7.25a16.1,16.1,0,0,1-5.14,8.28L377.53,463"/><path id="accent-4" class="cls-9" d="M337.5,434s3.89,9.77,15,11c4.5.5,7.64-1,12.5-3.5,6.16-3.13,11.22-8.14,10.5-8.5,0,0,.5,4.5-1.5,7.5s-8,10-20,10S337.5,434,337.5,434Z"/><ellipse id="big-button-2" class="cls-3" cx="391.25" cy="409.5" rx="7.68" ry="11.87" transform="translate(-174.97 396.59) rotate(-45)"/><ellipse id="big-button" class="cls-3" cx="378.25" cy="427.5" rx="7.68" ry="11.87" transform="translate(-191.5 392.67) rotate(-45)"/><path id="accent-3" class="cls-10" d="M394.51,418c-.1.16-4.88-1.79-8.58-6.46-2.49-3.15-3.59-6.39-3.43-6.5s2.18,4.37,6.69,8.76A39.18,39.18,0,0,0,394.51,418Z"/><path id="accent-2" class="cls-10" d="M382,435.79c-.09.16-4.88-1.8-8.57-6.47-2.49-3.14-3.59-6.38-3.43-6.5s2.18,4.38,6.69,8.76A42.22,42.22,0,0,0,382,435.79Z"/><path id="accent" class="cls-11" d="M281.34,275.7c-.18-.24,2.82-3.86,6-5a11,11,0,0,1,7,0,25.83,25.83,0,0,0-7,1C283.62,272.94,281.51,275.92,281.34,275.7Z"/></g><polygon id="n-prt-2" class="cls-1" points="433.25 163.5 433.25 169.5 418.25 169.5 418.25 387.5 410.25 383.5 410.25 169.5 396.25 169.5 396.25 163.5 433.25 163.5"/><polygon id="n-prt-1" class="cls-1" points="306.25 595.5 306.25 604.5 269.25 604.5 269.25 595.5 284.25 595.5 284.25 289.5 292.25 289.5 292.25 595.5 306.25 595.5"/><polygon id="divider" points="754.75 450 420.46 450 412.75 459 754.75 459 754.75 450"/><g id="first-name"><path d="M516.74,373.4a8.35,8.35,0,0,1-.14,1.36,12.41,12.41,0,0,1-.41,1.59,16.39,16.39,0,0,1-.57,1.54,5.2,5.2,0,0,1-.64,1.17c-.19.25-.47.59-.83,1l-1.21,1.4c-.45.51-.93,1-1.45,1.59s-1.07,1.09-1.64,1.6c-2,1.8-3.89,3.55-5.78,5.25a47.2,47.2,0,0,1-5.82,4.49,29.62,29.62,0,0,1-6.25,3.11,20,20,0,0,1-7.06,1.12,10.36,10.36,0,0,1-3.54-.64,12.6,12.6,0,0,1-3.35-1.83,12.05,12.05,0,0,1-2.71-2.85,11,11,0,0,1-1.62-3.66l-2.9,3c-1,1-2.07,2.07-3.16,3.11s-2.23,2.06-3.4,3a39.52,39.52,0,0,1-3.61,2.71c-.7.45-1.53.92-2.5,1.43a32.63,32.63,0,0,1-3,1.4,24.63,24.63,0,0,1-3.18,1.05,11.75,11.75,0,0,1-2.88.4,4.93,4.93,0,0,1-3.35-1.21,10.11,10.11,0,0,1-2.33-3,15.11,15.11,0,0,1-1.38-3.76,16.4,16.4,0,0,1-.45-3.56,24.24,24.24,0,0,1,.9-6.42,40.85,40.85,0,0,1,2.36-6.39,50.17,50.17,0,0,1,3.23-5.92q1.79-2.81,3.49-5A38.88,38.88,0,0,1,455.8,366a43.7,43.7,0,0,1,5.13-4,32.21,32.21,0,0,1,5.23-2.88,11.86,11.86,0,0,1,4.57-1.09h2.11a20.18,20.18,0,0,1,2.21.12,16.79,16.79,0,0,1,2.14.38,6.84,6.84,0,0,1,1.9.78,4.28,4.28,0,0,1,1,1.1,14,14,0,0,1,1.07,1.8,15.4,15.4,0,0,1,.83,2,5.35,5.35,0,0,1,.33,1.57,16.59,16.59,0,0,1-.71,4.18c-.51,2.19-1,4.18-1.4,6a23.57,23.57,0,0,0-.64,5.53,11.13,11.13,0,0,0,.52,3.31,10.9,10.9,0,0,0,1.5,3.06,8.22,8.22,0,0,0,2.37,2.26,5.82,5.82,0,0,0,3.17.88,16,16,0,0,0,5.94-1.21,32.42,32.42,0,0,0,6.15-3.33,58.19,58.19,0,0,0,6.21-4.89q3.09-2.79,6.08-5.92l.83-1c.4-.46.81-.92,1.24-1.38s.85-.87,1.26-1.23a1.75,1.75,0,0,1,.9-.55C516.41,371.45,516.74,372.1,516.74,373.4Zm-42.31-3.65c0-.53,0-1.2-.09-2a3.92,3.92,0,0,0-.62-1.95,1.48,1.48,0,0,0-1.28-.74l-1.52,0a9.9,9.9,0,0,0-3.21.52,14.16,14.16,0,0,0-3,1.45,21,21,0,0,0-2.83,2.14c-.9.81-1.78,1.65-2.64,2.54a25.37,25.37,0,0,0-2.3,2.71c-.81,1.08-1.6,2.26-2.38,3.54s-1.53,2.63-2.26,4a44.94,44.94,0,0,0-1.9,4.18,32.3,32.3,0,0,0-1.28,4,14.55,14.55,0,0,0-.48,3.49,9.45,9.45,0,0,0,.5,2.78,3.88,3.88,0,0,0,.72,1.26,1.4,1.4,0,0,0,1.11.52,14.73,14.73,0,0,0,5.47-1.37,28.7,28.7,0,0,0,8.1-5.21,32.64,32.64,0,0,0,6.21-7.63A29.1,29.1,0,0,0,474.43,369.75Z"/><path d="M559,351.36a1.09,1.09,0,0,1,.9.62,2.23,2.23,0,0,1,.38,1.14,4.4,4.4,0,0,1-.69,2.11,12.45,12.45,0,0,1-1.88,2.45,19.37,19.37,0,0,1-2.8,2.4,18.83,18.83,0,0,1-3.42,2q-2.62,1.14-5.8,2.19T539,366.09q-3.54.81-7.37,1.41c-2.55.39-5.11.69-7.67.88-.16,0-.33.3-.5.9s-.36,1.36-.55,2.28-.37,1.94-.55,3.07-.34,2.22-.49,3.28-.31,2-.43,2.87-.22,1.48-.29,1.86c-.28,1.71-.53,3.22-.73,4.54s-.38,2.55-.53,3.7-.26,2.28-.35,3.35-.16,2.22-.19,3.43c0,.66,0,1.26,0,1.78s0,1,0,1.54,0,1,0,1.55,0,1.12-.12,1.78a1.86,1.86,0,0,1-.59.81,9.62,9.62,0,0,1-1.26,1,16,16,0,0,1-1.4.88,2.58,2.58,0,0,1-1,.38,2.61,2.61,0,0,1-1.95-.78,5.93,5.93,0,0,1-1.18-1.79,7.46,7.46,0,0,1-.57-1.94,10.4,10.4,0,0,1-.15-1.29,50.78,50.78,0,0,1,.53-7.41q.51-3.57,1.26-7.25c.49-2.46,1-5,1.52-7.65s1-5.54,1.35-8.68a1.83,1.83,0,0,0-1.16-1.09,5.49,5.49,0,0,0-1.6-.24l-.54,0-.5,0c-.16,0-.57,0-1.24.07s-1.46.09-2.37.14-1.9.11-2.93.19-2,.14-2.9.19l-2.35.14c-.67.05-1.08.07-1.24.07a2.69,2.69,0,0,1-1.49-.47,6.41,6.41,0,0,1-1.31-1.12,6.68,6.68,0,0,1-.93-1.33,2.75,2.75,0,0,1-.35-1.16,3.61,3.61,0,0,1,.35-1.64,3.37,3.37,0,0,1,.91-1.12,3.61,3.61,0,0,1,1.23-.64,4.66,4.66,0,0,1,1.36-.22c.47,0,1.17,0,2.09,0l3-.12c1.11,0,2.27-.1,3.47-.17s2.33-.14,3.38-.24,2-.19,2.75-.28a11.43,11.43,0,0,0,1.67-.29,4.6,4.6,0,0,0,2.09-2.09,18.68,18.68,0,0,0,2-5.37c.12-.54.28-1.3.47-2.28s.4-2.08.62-3.28.44-2.45.67-3.73.42-2.5.61-3.66.34-2.19.45-3.09.19-1.58.22-2a2.54,2.54,0,0,1,.5-1.38,8.14,8.14,0,0,1,1.16-1.4,8.78,8.78,0,0,1,1.33-1.07,2.17,2.17,0,0,1,1-.43,2.34,2.34,0,0,1,1.38.48,5.31,5.31,0,0,1,1.16,1.11,5.86,5.86,0,0,1,.79,1.31,2.83,2.83,0,0,1,.28,1,10.19,10.19,0,0,1-.12,1.07c-.07.55-.18,1.23-.3,2s-.28,1.65-.46,2.56-.33,1.79-.47,2.62-.28,1.56-.41,2.21-.22,1.1-.28,1.35c-.44,1.94-.82,3.54-1.12,4.8s-.54,2.33-.71,3.19-.3,1.54-.38,2.07a9.34,9.34,0,0,0-.12,1.4,2.61,2.61,0,0,0,.29,1.47,1.19,1.19,0,0,0,1,.43c.12,0,.63-.05,1.52-.14s2-.24,3.4-.43,2.9-.43,4.58-.71,3.38-.61,5.09-1,3.36-.77,4.94-1.21a27.34,27.34,0,0,0,4.14-1.47c1.14-.54,2.19-1.06,3.16-1.57l2.57-1.38c.74-.41,1.36-.74,1.85-1A2.85,2.85,0,0,1,559,351.36Z"/><path d="M635.33,375a6.88,6.88,0,0,1-1.42,3.14,22,22,0,0,1-1.33,1.9c-.54.7-1.1,1.4-1.69,2.12s-1.16,1.38-1.73,2-1.08,1.17-1.53,1.61a76.77,76.77,0,0,1-5.84,5.37,53.35,53.35,0,0,1-6.4,4.59,35.65,35.65,0,0,1-6.84,3.26,22.66,22.66,0,0,1-7.2,1.28,11.24,11.24,0,0,1-5-1.05,7.53,7.53,0,0,1-3.4-3.37,20.07,20.07,0,0,1-1.85-5.23c-.41-1.93-.75-4-1-6.23,0-.34-.08-.87-.14-1.56s-.14-1.47-.22-2.31-.18-1.7-.31-2.59-.26-1.7-.42-2.42a9.13,9.13,0,0,0-.55-1.79q-.32-.69-.69-.69-1.47,0-4,2a49.26,49.26,0,0,0-5.61,5.18q-3,3.21-6.23,7.25T566,395.71c-1.61,2.41-3.08,4.82-4.39,7.25l-3.45,6.34a5.07,5.07,0,0,1-1.71,1.74,3.41,3.41,0,0,1-1.24.5,3.68,3.68,0,0,1-1.54-.36,5.86,5.86,0,0,1-1.43-.93,4.81,4.81,0,0,1-1-1.3,3,3,0,0,1-.41-1.45,14.13,14.13,0,0,1,.22-2c.14-.94.3-2,.5-3.16s.38-2.39.57-3.64.34-2.42.47-3.49c.22-2.1.48-4.39.76-6.9s.56-5,.81-7.58.49-5,.71-7.48.4-4.65.53-6.61c0-.63.07-1.47.14-2.52s.12-2.19.19-3.45.12-2.57.19-4,.12-2.74.19-4.06.12-2.55.16-3.71.09-2.13.12-2.92.09-1.71.17-2.47.19-1.52.33-2.26a15.47,15.47,0,0,1,.62-2.23c.27-.75.61-1.56,1-2.45a4.6,4.6,0,0,1,.62-.95,5.88,5.88,0,0,1,1-.95,6.51,6.51,0,0,1,1.18-.74,3,3,0,0,1,1.31-.31,3.54,3.54,0,0,1,2.5,1.09,4.1,4.1,0,0,1,1.11,3,9,9,0,0,1-.21,1.66c-.14.7-.31,1.42-.5,2.16s-.37,1.46-.55,2.14-.29,1.2-.35,1.55c-.26,1.3-.48,2.78-.67,4.46s-.37,3.4-.55,5.14-.32,3.46-.45,5.16-.23,3.2-.33,4.53c-.09,1.53-.21,2.95-.36,4.28s-.28,2.66-.42,4-.28,2.65-.41,4-.25,2.8-.38,4.35q-.33,3.52-.76,6.21a30.56,30.56,0,0,0-.43,4.58,1.17,1.17,0,0,0,.31.67c.21.25.39.38.55.38h.19a17.48,17.48,0,0,0,1.09-1.57c.45-.7.95-1.46,1.52-2.28l1.79-2.59c.61-.9,1.22-1.74,1.83-2.5l2-2.49c.71-.9,1.46-1.82,2.23-2.74s1.57-1.83,2.38-2.75,1.59-1.78,2.35-2.57c1-1,2.08-2,3.28-3.09a36.31,36.31,0,0,1,3.78-2.95,24.76,24.76,0,0,1,4-2.18,9.67,9.67,0,0,1,3.8-.86,3,3,0,0,1,.88.19,5.14,5.14,0,0,1,1.1.55,6.22,6.22,0,0,1,1,.85,3.5,3.5,0,0,1,.71,1.17,28.71,28.71,0,0,1,1.38,5.13c.28,1.71.54,3.52.76,5.42.19,1.62.4,3.28.62,5a40.31,40.31,0,0,0,.85,4.66,11.65,11.65,0,0,0,1.36,3.42,2.43,2.43,0,0,0,2.11,1.33,25.36,25.36,0,0,0,11.22-2.61q2.85-1.38,4.92-2.66a43.89,43.89,0,0,0,7.39-5.71l4.09-3.85q4.61-4.23,5.37-4.23C635.1,373.08,635.33,373.73,635.33,375Z"/><path d="M694.47,368.14a7.58,7.58,0,0,1-.93,3.44,22.67,22.67,0,0,1-2.07,3.36,73,73,0,0,1-6.25,7.39q-3.26,3.35-6.58,6.34a32.48,32.48,0,0,1-6.92,4.9,13.93,13.93,0,0,1-6.2,1.76,5.28,5.28,0,0,1-2.35-.57,9.27,9.27,0,0,1-2.19-1.5,10.92,10.92,0,0,1-1.81-2.16,11.55,11.55,0,0,1-1.21-2.57,14.81,14.81,0,0,1-.43-1.64c-.12-.62-.25-1.19-.38-1.71a8.41,8.41,0,0,0-.42-1.33c-.16-.37-.34-.55-.53-.55s-.39.21-.81.62-.89.94-1.45,1.59-1.14,1.38-1.78,2.19-1.26,1.59-1.88,2.35-1.17,1.46-1.66,2.09-.88,1.11-1.16,1.43A36.88,36.88,0,0,1,644,397a51.13,51.13,0,0,1-4,3.16,34.54,34.54,0,0,1-3.71,2.33,6.15,6.15,0,0,1-2.49.9,10.53,10.53,0,0,1-3.49-.59,9,9,0,0,1-3-1.74,8.6,8.6,0,0,1-2.06-2.8,8.74,8.74,0,0,1-.79-3.81,27.64,27.64,0,0,1,1.4-8,62.5,62.5,0,0,1,3.71-9.17,71,71,0,0,1,5.3-9,48.37,48.37,0,0,1,6.23-7.39,25.54,25.54,0,0,1,7.87-5.26,22.09,22.09,0,0,1,8.43-1.68,2.88,2.88,0,0,1,1.41.33,3.79,3.79,0,0,1,1,.85,6.93,6.93,0,0,1,.76,1.17c.22.43.44.86.66,1.31a3.07,3.07,0,0,0,.81,1l1.29,1.07a12.34,12.34,0,0,1,1.16,1.07,1.49,1.49,0,0,1,.5,1,7,7,0,0,1-.41,2.21c-.27.81-.56,1.75-.87,2.81a36.16,36.16,0,0,0-.88,3.61,23.75,23.75,0,0,0-.41,4.64,27.41,27.41,0,0,0,.31,3.89,24.53,24.53,0,0,0,.95,4.16,11.49,11.49,0,0,0,1.64,3.31,2.9,2.9,0,0,0,2.33,1.33,6.42,6.42,0,0,0,3.23-.93,30.22,30.22,0,0,0,3.71-2.59,84.47,84.47,0,0,0,8.84-8.13q4.18-4.43,8.56-8.79a2.1,2.1,0,0,1,1.42-.76C694.1,366.43,694.47,367,694.47,368.14Zm-37.17-5.57a2.5,2.5,0,0,0-.15-.53,4.1,4.1,0,0,0-.42-.88,3.79,3.79,0,0,0-.69-.8,1.31,1.31,0,0,0-.88-.36h-.1a11.72,11.72,0,0,0-3.75,1.16,18.72,18.72,0,0,0-4.23,3,41.05,41.05,0,0,0-4.71,5.2,71.34,71.34,0,0,0-5.13,7.75l-1.79,3a35.67,35.67,0,0,0-1.85,3.61,27.11,27.11,0,0,0-1.47,4.21,18.09,18.09,0,0,0-.6,4.71,2.57,2.57,0,0,0,1.07,2.23,3.74,3.74,0,0,0,2.21.76,6.05,6.05,0,0,0,3.09-1.31,30.59,30.59,0,0,0,4.11-3.47,64.23,64.23,0,0,0,4.52-4.94,68.78,68.78,0,0,0,4.28-5.73,57.61,57.61,0,0,0,3.42-5.8,22.46,22.46,0,0,0,2-5.18c.1-.47.21-1,.34-1.69s.24-1.3.35-1.95.21-1.25.29-1.8A9.68,9.68,0,0,0,657.3,362.57Z"/><path d="M752.55,392a7.49,7.49,0,0,1-1.14,3.66,12.86,12.86,0,0,1-3.35,3.73,18.94,18.94,0,0,1-5.49,2.9,22.3,22.3,0,0,1-7.51,1.17,18,18,0,0,1-7.56-1.5,13.85,13.85,0,0,1-5.54-4.68,23.28,23.28,0,0,1-3.42-8.08,51.52,51.52,0,0,1-1.16-11.69,14.79,14.79,0,0,0-2.24,1.92q-1.47,1.46-3.3,3.42t-3.8,4.26q-2,2.28-3.76,4.39t-3.18,3.93c-.94,1.2-1.63,2.13-2.07,2.8-.79,1.2-1.43,2.21-1.9,3a15,15,0,0,1-1.33,1.95,3.65,3.65,0,0,1-1.31,1,4.31,4.31,0,0,1-1.78.31,5.34,5.34,0,0,1-1.86-.31,4.73,4.73,0,0,1-1.47-.81,3.66,3.66,0,0,1-1-1.11,2.62,2.62,0,0,1-.33-1.24c0-.57,0-1.23.09-2s.15-1.51.26-2.28.23-1.55.36-2.31.24-1.44.33-2q.48-2.52,1.05-5.9t.9-8.22q.24-3.09.45-5.85c.15-1.83.22-3.75.22-5.75a11.32,11.32,0,0,1,.33-2.75,7.31,7.31,0,0,1,1-2.36,5.57,5.57,0,0,1,1.71-1.64,4.67,4.67,0,0,1,2.45-.62,4.35,4.35,0,0,1,1.71.29,2.62,2.62,0,0,1,1,.76,2.51,2.51,0,0,1,.5,1.07,6.13,6.13,0,0,1,.12,1.21,10.6,10.6,0,0,1-.1,1.4,9.6,9.6,0,0,0-.09,1.22c0,.09-.05.45-.15,1.07s-.23,1.4-.4,2.35-.38,2-.62,3.18-.48,2.35-.74,3.52q-.79,3.66-1.16,5.87c-.24,1.47-.41,2.74-.52,3.8s-.19,2.06-.24,3-.15,2-.31,3.33q1-1.42,2.95-3.54l3.94-4.37c1.37-1.51,2.67-3,3.92-4.37s2.25-2.6,3-3.55a43.18,43.18,0,0,1,2.89-3.47,22.3,22.3,0,0,1,3-2.71,13.38,13.38,0,0,1,3.33-1.78,10.78,10.78,0,0,1,3.75-.64c.92,0,1.5.22,1.76.67a3.22,3.22,0,0,1,.38,1.61c0,.26,0,.52,0,.79s0,.53,0,.78a12.2,12.2,0,0,1-.14,1.36c-.1.65-.19,1.34-.29,2.09s-.18,1.45-.26,2.11-.12,1.13-.12,1.38a43.14,43.14,0,0,0,.62,7.58,19.12,19.12,0,0,0,2,5.94,10.15,10.15,0,0,0,3.66,3.88,10.65,10.65,0,0,0,5.61,1.38,23.61,23.61,0,0,0,3.78-.27,13.83,13.83,0,0,0,3.13-.87,22.6,22.6,0,0,0,3-1.57c1-.64,2.2-1.43,3.5-2.38.32-.25.63-.49,1-.71l.76-.48a1.25,1.25,0,0,1,.62-.24Z"/></g><g id="last-name"><path d="M427.2,555q-1.95,1.78-4.44,3.7a44.06,44.06,0,0,1-5.35,3.51,33.94,33.94,0,0,1-6,2.62,20.38,20.38,0,0,1-6.38,1,9.93,9.93,0,0,1-5.1-1.24,9.24,9.24,0,0,1-3.49-3.8,20.72,20.72,0,0,1-2-6.44,56.75,56.75,0,0,1-.64-9.17c-.66,1.05-1.39,2.12-2.17,3.22s-1.57,2.16-2.36,3.16-1.53,1.92-2.25,2.75-1.33,1.5-1.86,2a60.51,60.51,0,0,1-10.84,8.84,18.33,18.33,0,0,1-9.52,3.1,6.12,6.12,0,0,1-2.54-.5,6.21,6.21,0,0,1-1.85-1.25,5.26,5.26,0,0,1-1.55-3.66,23.91,23.91,0,0,1,1-6.77,43.93,43.93,0,0,1,2.62-6.82,59,59,0,0,1,3.59-6.42q2-3.08,4-5.55a56.76,56.76,0,0,1,3.84-4.47,42.48,42.48,0,0,1,3.86-3.57,20.18,20.18,0,0,1,3.57-2.35,6.85,6.85,0,0,1,3-.85,4.61,4.61,0,0,1,1.59.33,11.8,11.8,0,0,1,1.73.81,15,15,0,0,1,1.53,1,9.69,9.69,0,0,1,1,.72c.33.39.68.82,1.06,1.3a2.49,2.49,0,0,1,.55,1.55,5.86,5.86,0,0,1-.2,1.26,2.17,2.17,0,0,1-.75,1.22,3.67,3.67,0,0,0-.37.43,1.69,1.69,0,0,1-.43.41,2.53,2.53,0,0,1-.7.33,3.76,3.76,0,0,1-1.18.15,1.85,1.85,0,0,1-1.28-.48,5.24,5.24,0,0,1-1-1.09,11.45,11.45,0,0,1-.73-1.24,3.67,3.67,0,0,0-.59-.91,5.67,5.67,0,0,0-3.1,1.05,18.65,18.65,0,0,0-3.24,2.79,37,37,0,0,0-3.22,4c-1.06,1.5-2.08,3.06-3,4.67s-1.85,3.21-2.66,4.81-1.53,3.06-2.13,4.4a36,36,0,0,0-1.4,3.47,7.36,7.36,0,0,0-.5,2,2.65,2.65,0,0,0,.76,1.88,2.71,2.71,0,0,0,2.05.8,6.93,6.93,0,0,0,2.6-.56,20.81,20.81,0,0,0,2.81-1.38c.93-.55,1.82-1.13,2.66-1.73s1.55-1.16,2.13-1.66q2-1.72,4.33-4c1.55-1.49,3-3.07,4.47-4.75a47.09,47.09,0,0,0,3.84-5.18,23,23,0,0,0,2.52-5.27,39.29,39.29,0,0,0,.92-3.82c.29-1.44.57-3,.83-4.67s.5-3.39.7-5.18.4-3.54.56-5.27.31-3.38.43-5,.25-3.06.36-4.36c.16-3.5,1.8-5.24,4.91-5.24a1.78,1.78,0,0,1,1.61,1.21,8.22,8.22,0,0,1,.58,3.45q0,.33-.21,1.86c-.14,1-.33,2.29-.58,3.82s-.52,3.24-.82,5.14-.61,3.86-.91,5.89-.61,4-.91,6-.58,3.85-.82,5.55-.45,3.2-.58,4.48-.21,2.21-.21,2.79c0,.77,0,1.7,0,2.79a32.94,32.94,0,0,0,.21,3.37,24.12,24.12,0,0,0,.62,3.44,11.19,11.19,0,0,0,1.26,3.08,6.84,6.84,0,0,0,2.1,2.21,5.71,5.71,0,0,0,3.18.85,18.52,18.52,0,0,0,4.67-.6,27.23,27.23,0,0,0,4.71-1.72,42.86,42.86,0,0,0,4.91-2.72c1.68-1.08,3.44-2.27,5.29-3.59l.25-.25c.13-.14.29-.28.45-.44l.46-.41a.85.85,0,0,1,.24-.18c.2,0,.38.2.54.61a4.2,4.2,0,0,1,.25,1.57,5.17,5.17,0,0,1-.25,1.59A3.36,3.36,0,0,1,427.2,555Z"/><path d="M464.7,550.24a6,6,0,0,1-1.07,3.14,26.47,26.47,0,0,1-3.06,3.8,39.43,39.43,0,0,1-5,4.44,40.63,40.63,0,0,1-5.62,3.55,31.75,31.75,0,0,1-5.86,2.38,20.42,20.42,0,0,1-5.74.87q-6.48,0-10-4.18T424.76,552a30.41,30.41,0,0,1,.46-5.23,33.81,33.81,0,0,1,1.34-5.26,30.93,30.93,0,0,1,2.23-5,27.27,27.27,0,0,1,3.12-4.54c.74-.86,1.57-1.72,2.47-2.6a18.52,18.52,0,0,1,3-2.38,16.65,16.65,0,0,1,3.61-1.71,13.38,13.38,0,0,1,4.28-.66,6.67,6.67,0,0,1,3,.64,7.15,7.15,0,0,1,2.23,1.63,7,7,0,0,1,1.86,4.66,10.83,10.83,0,0,1-1.36,5.1,24,24,0,0,1-3.84,5.21,47.92,47.92,0,0,1-5.95,5.24q-3.46,2.63-7.72,5.23c-.39.22-.78.46-1.16.72a1.14,1.14,0,0,0-.58,1,11,11,0,0,0,.33,2.6A6.54,6.54,0,0,0,435.6,561a8.22,8.22,0,0,0,3.74.74,19.79,19.79,0,0,0,5.89-.92,28.56,28.56,0,0,0,5.86-2.59,38.7,38.7,0,0,0,5.58-3.92,47.78,47.78,0,0,0,5.05-4.91c.89-1,1.59-1.45,2.11-1.45a.7.7,0,0,1,.66.54A5.33,5.33,0,0,1,464.7,550.24Zm-19.16-17.63a1.53,1.53,0,0,0-.25-.83,2.53,2.53,0,0,0-.6-.62,3.75,3.75,0,0,0-.74-.39,2,2,0,0,0-.69-.14,6.53,6.53,0,0,0-3.71,1.3,14.36,14.36,0,0,0-3.55,3.61,24.83,24.83,0,0,0-2.9,5.49,28.57,28.57,0,0,0-1.69,6.9c.39-.25.89-.6,1.53-1.07l2-1.55,2.19-1.72c.73-.57,1.39-1.11,2-1.61q1.9-1.61,3.14-2.87a17.27,17.27,0,0,0,2-2.31,7.17,7.17,0,0,0,1-2.06A7.88,7.88,0,0,0,445.54,532.61Z"/><path d="M562,513.94a5,5,0,0,1-1,3.16,3.41,3.41,0,0,1-2.87,1.3,2.64,2.64,0,0,1-1.55-.64c-.56-.43-1.08-.85-1.55-1.26a7.36,7.36,0,0,0-1.52-1.16,3.8,3.8,0,0,0-1.91-.49q-5.07,0-13.09,3.39a52.79,52.79,0,0,0-7.47,3.94,66.09,66.09,0,0,0-6.82,5,58,58,0,0,0-6.34,6.13,65.23,65.23,0,0,0-5.26,6.71,23.8,23.8,0,0,0-3.31,7.31,32.21,32.21,0,0,0-1.11,8.22,6,6,0,0,0,1.94,4,9.12,9.12,0,0,0,4,2.57,26,26,0,0,0,11.56,0,42.46,42.46,0,0,0,6-1.86,55.15,55.15,0,0,0,5.78-2.69,46.71,46.71,0,0,0,5.12-3.16c.55-.44,1.14-1,1.76-1.55a20.76,20.76,0,0,0,1.87-2.08,25.52,25.52,0,0,0,1.68-2.23,14.6,14.6,0,0,0,1.09-1.94,1.89,1.89,0,0,0,.29-1.08A5.67,5.67,0,0,0,549,544a5.74,5.74,0,0,1-.27-1.51q0-1.53,3.72-1.53c.77,0,1.93.58,3.47,1.73s2.31,2.06,2.31,2.69q0,.12-2.56,5.24c-.85,1.71-1.51,3-2,4s-.72,1.5-.8,1.69c-.47,1.08-.94,2.28-1.41,3.62s-.93,2.81-1.4,4.44a28.73,28.73,0,0,0-1.45,7,1.59,1.59,0,0,0,.1.89,6.49,6.49,0,0,0,.42.79,6.66,6.66,0,0,0,.45.62c.15.18.23.29.23.35a4.86,4.86,0,0,1-.35,1.84,4.94,4.94,0,0,1-1,1.48,4.32,4.32,0,0,1-1.45,1,4.6,4.6,0,0,1-1.83.37,2.94,2.94,0,0,1-2.9-1.47,8.87,8.87,0,0,1-.74-3.94c0-.44,0-.87.06-1.28s.09-.83.15-1.24c.16-.86.37-1.81.62-2.85.13-.53.26-1,.37-1.39s.19-.73.25-1a16.24,16.24,0,0,0,.57-3.14c0-.27,0-.41-.16-.41q-.87,0-5.41,2.27l-3.7,1.78c-.92.44-1.55.73-1.88.86A35.82,35.82,0,0,1,519,569.74a25.11,25.11,0,0,1-8.64-1.66,20.79,20.79,0,0,1-7.76-4.83,10.17,10.17,0,0,1-3.14-7.35q0-12.23,11.28-25.32a86.75,86.75,0,0,1,9.66-9.7,62,62,0,0,1,11.32-7.27c.71-.39,1.53-.78,2.43-1.18s1.92-.8,3-1.22c2.23-.85,4.44-1.59,6.65-2.23a42.71,42.71,0,0,1,6.15-1.32,43.4,43.4,0,0,1,5.33-.24,6,6,0,0,1,2.52.47,6.86,6.86,0,0,1,2.19,1.45,7.65,7.65,0,0,1,1.53,2.12A5.29,5.29,0,0,1,562,513.94Z"/><path d="M609.83,537.44c0,.17,0,.41,0,.72a4,4,0,0,1-.21,1,4.45,4.45,0,0,1-.39.85.67.67,0,0,1-.6.37c-.17,0-.44,0-.83,0l-1.22-.06-1.21-.06c-.39,0-.66,0-.83,0A19.51,19.51,0,0,0,591.37,546a44,44,0,0,0-8.92,13.79c-.47,1.19-.93,2.41-1.39,3.68s-.89,2.6-1.3,4a17.41,17.41,0,0,0-.47,2.05,12.68,12.68,0,0,1-.48,1.88c0,.22-.29.43-.7.64a11.3,11.3,0,0,1-1.38.56c-.51.16-1,.3-1.47.41a5.1,5.1,0,0,1-1,.16q-2.85.17-3.22-5.9c-.08-1.1-.12-2.1-.1-3s0-1.76.1-2.6.13-1.72.23-2.64.19-2,.31-3.12c.13-1.43.3-3.08.49-5s.41-3.75.66-5.65.51-3.71.79-5.43a42.63,42.63,0,0,1,.86-4.28,7.1,7.1,0,0,1,1.26-2.89,3.18,3.18,0,0,1,2.38-1,2.11,2.11,0,0,1,.89.22,3.91,3.91,0,0,1,.86.6,4.39,4.39,0,0,1,.66.79,1.68,1.68,0,0,1,.31.74,19.2,19.2,0,0,1,0,2.25c0,.81-.15,1.65-.29,2.52s-.3,1.74-.49,2.62-.39,1.72-.58,2.52c-.39,1.57-.68,2.91-.89,4s-.38,2.2-.51,3.24-.28,2.17-.42,3.37-.31,2.68-.53,4.44c.46-1.05.87-1.94,1.21-2.69l.93-2c.28-.56.53-1.06.77-1.51s.49-.9.76-1.38l.91-1.59c.33-.58.74-1.28,1.24-2.11a35.42,35.42,0,0,1,6.19-7.82,23.43,23.43,0,0,1,6.36-4.36,16.47,16.47,0,0,1,5.7-1.78,18.76,18.76,0,0,1,2.56.13,13.74,13.74,0,0,1,2.85.62,8.26,8.26,0,0,1,2.34,1.17A2.17,2.17,0,0,1,609.83,537.44Z"/><path d="M670,548.43q.09-.09.12-.09c.09,0,.16.12.21.35a3.75,3.75,0,0,1,.08.89,6.8,6.8,0,0,1-.16,1.43,5.24,5.24,0,0,1-.5,1.38,31.44,31.44,0,0,1-6.4,5.85,58.94,58.94,0,0,1-7.68,4.48c-1.07.49-2.07.93-3,1.3a24.53,24.53,0,0,1-2.65.91,19,19,0,0,1-2.6.51,23,23,0,0,1-2.85.17,7.34,7.34,0,0,1-3.16-.7,6.78,6.78,0,0,1-2.58-2.26,12.06,12.06,0,0,1-1.76-4,24.35,24.35,0,0,1-.64-6,48.75,48.75,0,0,1-4.75,6,61.18,61.18,0,0,1-5.38,5.16,33.09,33.09,0,0,1-5.17,3.63,8.94,8.94,0,0,1-4.07,1.37,6.71,6.71,0,0,1-3.07-.66,6.27,6.27,0,0,1-2.13-1.72,7.46,7.46,0,0,1-1.24-2.35,8.58,8.58,0,0,1-.41-2.54c0-.44,0-1,0-1.63s.08-1.31.17-2,.18-1.34.31-2a11.8,11.8,0,0,1,.43-1.73,35.31,35.31,0,0,1,2-5.23,58.66,58.66,0,0,1,2.91-5.45,57.06,57.06,0,0,1,3.58-5.24,49.86,49.86,0,0,1,3.94-4.61,31.45,31.45,0,0,1,4-3.55,14.82,14.82,0,0,1,3.84-2.11,8.6,8.6,0,0,1,1.3-.49c.54-.17,1.11-.31,1.71-.44s1.18-.22,1.72-.31a9.15,9.15,0,0,1,1.3-.12,3.11,3.11,0,0,1,1.69.47,4.57,4.57,0,0,1,1.28,1.24,5.56,5.56,0,0,1,.81,1.72,6.73,6.73,0,0,1,.26,1.86,3.34,3.34,0,0,1,1.12-.17,4.07,4.07,0,0,1,1.94.48,1.51,1.51,0,0,1,.91,1.42,6.52,6.52,0,0,1-.14,1.16c-.1.47-.22,1-.36,1.57s-.3,1.17-.49,1.77-.37,1.17-.54,1.7a20,20,0,0,0-.56,2.16c-.18.87-.34,1.78-.49,2.73s-.27,1.89-.35,2.81-.13,1.73-.13,2.41q0,5,1.22,7.34a4.51,4.51,0,0,0,4.36,2.29,11.27,11.27,0,0,0,2.89-.48,32.71,32.71,0,0,0,3.72-1.26c1.32-.52,2.69-1.15,4.13-1.88s2.83-1.5,4.21-2.33,2.67-1.69,3.88-2.58A32.16,32.16,0,0,0,670,548.43Zm-40,5a38.18,38.18,0,0,0,2.77-3.47,47.88,47.88,0,0,0,2.85-4.48,38.78,38.78,0,0,0,2.39-5,26.48,26.48,0,0,0,1.49-5.18,3.37,3.37,0,0,0-1.32-2.06,3.6,3.6,0,0,0-2-.58,7.05,7.05,0,0,0-2.38.43c-.81.29-1.53.59-2.17.89a11.06,11.06,0,0,0-2.78,2.13,40.28,40.28,0,0,0-3.31,3.67,54.53,54.53,0,0,0-3.34,4.65q-1.63,2.52-2.94,5a37.86,37.86,0,0,0-2.1,4.85,12.71,12.71,0,0,0-.81,4.11,5.94,5.94,0,0,0,.19,1.4,8.1,8.1,0,0,0,.47,1.39,4.74,4.74,0,0,0,.66,1,1,1,0,0,0,.75.41,4.24,4.24,0,0,0,1.59-.68,28.06,28.06,0,0,0,2.77-1.9c1.05-.81,2.21-1.78,3.46-2.91S628.74,554.73,630,553.38Z"/><path d="M727,542.38a6.21,6.21,0,0,1-.13,1.18,10.74,10.74,0,0,1-.35,1.38c-.15.47-.32.92-.49,1.34a4.7,4.7,0,0,1-.56,1c-.17.22-.41.51-.72.88s-.67.78-1.06,1.22-.8.9-1.26,1.39-.93.94-1.42,1.38q-2.57,2.36-5,4.56a40.37,40.37,0,0,1-5.06,3.91,25.7,25.7,0,0,1-5.43,2.7,17.26,17.26,0,0,1-6.13,1,8.85,8.85,0,0,1-3.08-.56,10.9,10.9,0,0,1-2.91-1.59,10.47,10.47,0,0,1-2.36-2.47,9.45,9.45,0,0,1-1.4-3.18l-2.52,2.58c-.88.89-1.8,1.79-2.75,2.7s-1.93,1.79-3,2.65a36.64,36.64,0,0,1-3.14,2.35c-.6.39-1.33.8-2.17,1.24a29,29,0,0,1-2.64,1.22,22.4,22.4,0,0,1-2.77.91,10.4,10.4,0,0,1-2.5.35,4.26,4.26,0,0,1-2.91-1.06,8.81,8.81,0,0,1-2-2.58,13,13,0,0,1-1.2-3.26,14.33,14.33,0,0,1-.39-3.1,21.07,21.07,0,0,1,.78-5.57,36.41,36.41,0,0,1,2-5.56,44.55,44.55,0,0,1,2.81-5.14q1.55-2.43,3-4.34a34.57,34.57,0,0,1,3.72-3.94,37.32,37.32,0,0,1,4.46-3.51,27.88,27.88,0,0,1,4.54-2.5,10.39,10.39,0,0,1,4-1h1.84c.64,0,1.28,0,1.92.1a14,14,0,0,1,1.85.33,5.7,5.7,0,0,1,1.66.69,3.79,3.79,0,0,1,.86,1,12.13,12.13,0,0,1,.93,1.56,14.31,14.31,0,0,1,.73,1.74,4.65,4.65,0,0,1,.28,1.36,14.37,14.37,0,0,1-.62,3.64c-.44,1.9-.84,3.62-1.21,5.18a20.22,20.22,0,0,0-.56,4.81,9.91,9.91,0,0,0,1.75,5.54,7.42,7.42,0,0,0,2.07,2,5.06,5.06,0,0,0,2.75.76,13.91,13.91,0,0,0,5.16-1,28.46,28.46,0,0,0,5.35-2.89,51.72,51.72,0,0,0,5.39-4.26q2.69-2.42,5.28-5.14l.73-.85c.34-.39.7-.79,1.07-1.19s.74-.76,1.09-1.08a1.59,1.59,0,0,1,.79-.47C726.71,540.69,727,541.25,727,542.38Zm-36.76-3.16c0-.47,0-1.05-.08-1.74a3.48,3.48,0,0,0-.54-1.69,1.27,1.27,0,0,0-1.12-.64l-1.32,0a8.77,8.77,0,0,0-2.79.45,13.37,13.37,0,0,0-2.62,1.26,19.38,19.38,0,0,0-2.46,1.86c-.78.7-1.54,1.44-2.29,2.21a22.42,22.42,0,0,0-2,2.35c-.7.94-1.39,2-2.06,3.08s-1.33,2.29-2,3.51a39.94,39.94,0,0,0-1.65,3.64,26.17,26.17,0,0,0-1.11,3.47,12.49,12.49,0,0,0-.42,3,7.76,7.76,0,0,0,.11,1.1,6.08,6.08,0,0,0,.33,1.32,3.14,3.14,0,0,0,.62,1.09,1.21,1.21,0,0,0,1,.46,12.85,12.85,0,0,0,4.75-1.2,25.11,25.11,0,0,0,7-4.52,29.16,29.16,0,0,0,5.39-6.63A25.26,25.26,0,0,0,690.24,539.22Z"/><path d="M751.54,540.79a1.41,1.41,0,0,1-.37.84,6.09,6.09,0,0,1-.86.91,10.49,10.49,0,0,1-1,.79,9.1,9.1,0,0,1-.83.51,6.48,6.48,0,0,1-.72.17q-.63.12-1.47.24l-1.65.25-1.23.17-2.67.25c-.94.08-1.84.17-2.7.26s-1.64.2-2.35.31a7.72,7.72,0,0,0-1.59.38c0,.24-.09.71-.17,1.4s-.18,1.47-.3,2.35-.25,1.82-.37,2.81-.25,1.93-.37,2.81-.22,1.65-.3,2.31-.14,1.11-.17,1.33c-.14,1.18-.32,2.67-.55,4.48s-.5,3.69-.82,5.68-.67,3.93-1.08,5.86a43.76,43.76,0,0,1-1.35,5,41.82,41.82,0,0,1-1.94,4.62,19.12,19.12,0,0,1-2.47,3.85,11.28,11.28,0,0,1-3.1,2.6,7.86,7.86,0,0,1-3.84,1,4.64,4.64,0,0,1-2-.48,6.47,6.47,0,0,1-1.75-1.22,6.3,6.3,0,0,1-1.25-1.61,3.58,3.58,0,0,1-.47-1.69v-.91a1.31,1.31,0,0,1,.1-.58.67.67,0,0,1,.35-.31,2.09,2.09,0,0,1,.77-.1,4.11,4.11,0,0,1,.68.1l1.1.21,1.16.21a6.44,6.44,0,0,0,.89.1A4.22,4.22,0,0,0,719,585a7.57,7.57,0,0,0,2.08-1.92,13.1,13.1,0,0,0,1.73-3.1,20.17,20.17,0,0,0,1.17-4.19q1.14-6,1.79-11t1.14-9.91c.05-.44.12-1,.18-1.67s.14-1.37.21-2.07.12-1.38.16-2,.06-1.23.06-1.7a1.29,1.29,0,0,0-.43-.95,8.42,8.42,0,0,0-1-.78,6.41,6.41,0,0,1-1-.81,1.37,1.37,0,0,1-.43-1v-.16c0-.5.73-1.68,2.2-3.55a10.72,10.72,0,0,0,2.49-4.42c.1-.55.22-1.26.34-2.13s.28-1.88.47-3c.22-1.4.44-2.73.67-4s.51-2.48.84-3.68.72-2.39,1.18-3.59a38,38,0,0,1,1.67-3.7q4.32-8.3,11.9-8.3a8,8,0,0,1,3.06.58,7.59,7.59,0,0,1,2.48,1.61,7.38,7.38,0,0,1,1.67,2.48,8,8,0,0,1,.62,3.18,16.62,16.62,0,0,1-.49,4,14,14,0,0,1-2,4.24q-1.71,2.64-3.18,2.64h-.07a24.71,24.71,0,0,0,.73-6.11c0-2.53-.39-4.37-1.18-5.5a3.4,3.4,0,0,0-2.78-1.69,3.78,3.78,0,0,0-2,.64,10.18,10.18,0,0,0-1.88,1.57,13.68,13.68,0,0,0-1.57,2,13.28,13.28,0,0,0-1.06,1.9,29.08,29.08,0,0,0-1.37,3.82c-.45,1.53-.87,3.12-1.25,4.75s-.7,3.25-1,4.84-.43,2.95-.51,4.11v1.77c0,1.13.78,1.69,2.33,1.69.49,0,1.27,0,2.35,0l3.47,0,3.68,0c1.21,0,2.21,0,3,0a4.06,4.06,0,0,0,.49.09,2.9,2.9,0,0,1,.65.14,2.1,2.1,0,0,1,.58.29A.62.62,0,0,1,751.54,540.79Z"/></g></svg>